<svg width="120" height="120" viewBox="0 0 120 120" xmlns="http://www.w3.org/2000/svg" fill="#D81159">
  <!-- <rect width="120" height="120" rx="20" fill="#f5f5f5"/> -->
  <path d="M60 20L25 45V95C25 97.76 27.24 100 30 100H90C92.76 100 95 97.76 95 95V45L60 20Z" fill="#4A90E2"/>
  <path d="M45 75H75V85H45V75Z" fill="#ffffff"/>
  <path d="M60 60C62.7614 60 65 57.7614 65 55C65 52.2386 62.7614 50 60 50C57.2386 50 55 52.2386 55 55C55 57.7614 57.2386 60 60 60Z" fill="#ffffff"/>
  <path d="M35 45L60 27L85 45" stroke="#ffffff" stroke-width="5"/>
</svg>
