<svg xmlns="http://www.w3.org/2000/svg" viewBox="0 0 1024 1024" fill="white">
<path d="M 559 770 L 559 773 Z"/>
<path d="M 555 770 L 554 771 L 555 771 L 556 772 L 555 771 L 556 770 Z"/>
<path d="M 468 769 L 468 770 L 469 770 L 470 771 L 469 772 L 471 770 L 469 770 Z"/>
<path d="M 552 768 Z"/>
<path d="M 475 768 Z"/>
<path d="M 465 768 Z"/>
<path d="M 547 765 Z"/>
<path d="M 544 765 Z"/>
<path d="M 483 764 Z"/>
<path d="M 557 762 L 558 762 Z"/>
<path d="M 486 762 Z"/>
<path d="M 555 760 Z"/>
<path d="M 492 758 Z"/>
<path d="M 554 757 Z"/>
<path d="M 533 756 Z"/>
<path d="M 553 754 Z"/>
<path d="M 534 754 L 536 756 Z"/>
<path d="M 601 751 Z"/>
<path d="M 420 751 Z"/>
<path d="M 417 751 Z"/>
<path d="M 608 750 L 614 750 Z"/>
<path d="M 605 750 L 606 751 Z"/>
<path d="M 477 750 Z"/>
<path d="M 428 750 L 428 751 Z"/>
<path d="M 410 750 L 412 750 Z"/>
<path d="M 598 749 L 597 750 L 595 750 L 597 750 L 598 749 L 599 749 Z"/>
<path d="M 589 749 L 589 750 Z"/>
<path d="M 551 749 Z"/>
<path d="M 439 749 L 438 750 L 439 751 L 438 750 Z"/>
<path d="M 421 749 L 422 749 Z"/>
<path d="M 401 749 L 402 750 L 403 750 L 402 750 Z"/>
<path d="M 593 748 Z"/>
<path d="M 434 748 Z"/>
<path d="M 427 748 L 428 748 Z"/>
<path d="M 588 747 L 589 747 Z"/>
<path d="M 400 747 Z"/>
<path d="M 620 746 L 621 747 L 620 748 L 621 749 L 620 750 L 617 750 L 619 750 L 620 751 L 621 750 L 622 750 L 623 751 L 621 749 L 622 748 L 622 747 L 623 746 L 622 747 L 621 746 Z"/>
<path d="M 584 746 L 584 748 L 585 749 L 585 748 L 584 747 L 585 746 Z"/>
<path d="M 550 746 Z"/>
<path d="M 474 746 Z"/>
<path d="M 435 746 L 436 747 Z"/>
<path d="M 582 745 L 581 746 L 580 746 L 581 746 Z"/>
<path d="M 578 745 Z"/>
<path d="M 502 745 Z"/>
<path d="M 438 745 Z"/>
<path d="M 623 744 Z"/>
<path d="M 441 744 Z"/>
<path d="M 407 744 Z"/>
<path d="M 400 744 Z"/>
<path d="M 503 743 Z"/>
<path d="M 448 743 Z"/>
<path d="M 480 742 Z"/>
<path d="M 455 741 Z"/>
<path d="M 450 741 Z"/>
<path d="M 453 740 Z"/>
<path d="M 608 739 Z"/>
<path d="M 522 739 Z"/>
<path d="M 524 738 Z"/>
<path d="M 522 737 Z"/>
<path d="M 480 737 L 481 738 Z"/>
<path d="M 457 736 Z"/>
<path d="M 507 735 Z"/>
<path d="M 556 734 Z"/>
<path d="M 521 734 Z"/>
<path d="M 482 733 Z"/>
<path d="M 548 732 L 548 734 Z"/>
<path d="M 508 732 Z"/>
<path d="M 520 731 Z"/>
<path d="M 481 730 L 480 731 L 481 731 Z"/>
<path d="M 554 729 Z"/>
<path d="M 521 728 L 520 729 Z"/>
<path d="M 509 728 Z"/>
<path d="M 468 728 Z"/>
<path d="M 553 727 Z"/>
<path d="M 548 725 L 548 727 L 549 727 L 548 726 Z"/>
<path d="M 550 724 L 550 725 L 551 726 L 551 727 L 551 725 Z"/>
<path d="M 482 723 L 482 724 L 481 725 L 481 726 L 480 727 L 481 726 L 481 725 L 482 724 Z"/>
<path d="M 590 722 Z"/>
<path d="M 510 721 L 510 722 Z"/>
<path d="M 480 721 L 480 723 Z"/>
<path d="M 520 720 L 520 721 Z"/>
<path d="M 481 719 Z"/>
<path d="M 908 718 Z"/>
<path d="M 578 714 Z"/>
<path d="M 440 714 L 441 714 Z"/>
<path d="M 520 712 Z"/>
<path d="M 572 708 Z"/>
<path d="M 450 707 Z"/>
<path d="M 724 702 Z"/>
<path d="M 436 702 Z"/>
<path d="M 698 699 Z"/>
<path d="M 521 699 L 521 702 Z"/>
<path d="M 511 696 L 511 712 Z"/>
<path d="M 769 695 Z"/>
<path d="M 260 694 Z"/>
<path d="M 520 693 L 520 694 Z"/>
<path d="M 520 691 Z"/>
<path d="M 250 686 Z"/>
<path d="M 520 685 L 520 687 Z"/>
<path d="M 253 685 L 252 686 L 253 687 L 252 686 Z"/>
<path d="M 780 683 Z"/>
<path d="M 520 683 Z"/>
<path d="M 521 680 Z"/>
<path d="M 520 678 Z"/>
<path d="M 245 676 Z"/>
<path d="M 782 672 Z"/>
<path d="M 776 672 L 776 673 L 778 673 L 779 672 Z"/>
<path d="M 771 672 Z"/>
<path d="M 760 672 Z"/>
<path d="M 758 672 Z"/>
<path d="M 750 672 Z"/>
<path d="M 742 672 Z"/>
<path d="M 739 672 Z"/>
<path d="M 737 672 Z"/>
<path d="M 734 672 Z"/>
<path d="M 730 672 Z"/>
<path d="M 728 672 Z"/>
<path d="M 723 672 Z"/>
<path d="M 718 672 L 721 672 Z"/>
<path d="M 712 672 Z"/>
<path d="M 710 672 Z"/>
<path d="M 707 672 Z"/>
<path d="M 705 672 Z"/>
<path d="M 702 672 Z"/>
<path d="M 699 672 Z"/>
<path d="M 697 672 Z"/>
<path d="M 694 672 Z"/>
<path d="M 691 672 Z"/>
<path d="M 685 672 L 687 672 Z"/>
<path d="M 677 672 L 683 672 Z"/>
<path d="M 672 672 L 674 672 Z"/>
<path d="M 670 672 Z"/>
<path d="M 665 672 L 666 672 Z"/>
<path d="M 662 672 Z"/>
<path d="M 657 672 L 658 672 Z"/>
<path d="M 654 672 L 655 672 Z"/>
<path d="M 648 672 L 649 672 Z"/>
<path d="M 642 672 Z"/>
<path d="M 629 672 L 634 672 Z"/>
<path d="M 624 672 L 627 672 Z"/>
<path d="M 622 672 Z"/>
<path d="M 616 672 L 617 672 Z"/>
<path d="M 614 672 Z"/>
<path d="M 608 672 L 610 672 Z"/>
<path d="M 606 672 Z"/>
<path d="M 601 672 L 602 672 Z"/>
<path d="M 598 672 L 599 672 Z"/>
<path d="M 593 672 Z"/>
<path d="M 584 672 L 585 672 Z"/>
<path d="M 561 672 Z"/>
<path d="M 558 672 Z"/>
<path d="M 462 672 L 463 673 L 465 673 L 465 672 L 464 672 L 463 673 Z"/>
<path d="M 457 672 Z"/>
<path d="M 448 672 L 451 672 Z"/>
<path d="M 446 672 Z"/>
<path d="M 440 672 L 442 672 Z"/>
<path d="M 430 672 Z"/>
<path d="M 425 672 Z"/>
<path d="M 421 672 L 423 672 Z"/>
<path d="M 419 672 Z"/>
<path d="M 417 672 Z"/>
<path d="M 414 672 Z"/>
<path d="M 411 672 Z"/>
<path d="M 406 672 Z"/>
<path d="M 401 672 Z"/>
<path d="M 397 672 L 399 672 Z"/>
<path d="M 392 672 L 393 672 Z"/>
<path d="M 390 672 Z"/>
<path d="M 385 672 L 386 672 Z"/>
<path d="M 382 672 L 383 672 Z"/>
<path d="M 377 672 L 379 672 Z"/>
<path d="M 374 672 Z"/>
<path d="M 369 672 L 371 672 Z"/>
<path d="M 366 672 Z"/>
<path d="M 353 672 L 354 672 Z"/>
<path d="M 350 672 Z"/>
<path d="M 347 672 Z"/>
<path d="M 342 672 Z"/>
<path d="M 339 672 Z"/>
<path d="M 337 672 Z"/>
<path d="M 334 672 Z"/>
<path d="M 328 672 L 329 672 Z"/>
<path d="M 326 672 Z"/>
<path d="M 320 672 L 323 672 Z"/>
<path d="M 318 672 Z"/>
<path d="M 310 672 L 311 672 L 312 673 L 313 672 Z"/>
<path d="M 307 672 Z"/>
<path d="M 305 672 Z"/>
<path d="M 296 672 L 296 673 L 297 672 L 299 672 Z"/>
<path d="M 294 672 Z"/>
<path d="M 289 672 L 290 672 Z"/>
<path d="M 286 672 Z"/>
<path d="M 278 672 L 281 672 Z"/>
<path d="M 270 672 Z"/>
<path d="M 255 672 L 255 673 Z"/>
<path d="M 555 670 L 555 673 Z"/>
<path d="M 521 668 L 521 676 Z"/>
<path d="M 464 667 L 465 668 Z"/>
<path d="M 465 664 Z"/>
<path d="M 554 655 Z"/>
<path d="M 556 653 Z"/>
<path d="M 467 653 L 467 671 Z"/>
<path d="M 467 650 L 467 651 Z"/>
<path d="M 520 648 L 520 651 Z"/>
<path d="M 467 648 Z"/>
<path d="M 465 648 Z"/>
<path d="M 511 632 L 511 694 Z"/>
<path d="M 553 631 L 553 636 Z"/>
<path d="M 892 630 Z"/>
<path d="M 518 625 Z"/>
<path d="M 466 619 Z"/>
<path d="M 465 616 Z"/>
<path d="M 519 615 Z"/>
<path d="M 554 613 Z"/>
<path d="M 519 612 L 519 613 Z"/>
<path d="M 519 609 Z"/>
<path d="M 465 600 Z"/>
<path d="M 512 598 L 512 607 Z"/>
<path d="M 514 592 L 514 593 Z"/>
<path d="M 464 592 L 465 592 Z"/>
<path d="M 513 587 L 513 589 Z"/>
<path d="M 520 586 L 520 587 Z"/>
<path d="M 518 584 Z"/>
<path d="M 465 584 Z"/>
<path d="M 467 583 L 467 586 Z"/>
<path d="M 980 582 Z"/>
<path d="M 514 580 Z"/>
<path d="M 465 579 L 465 582 Z"/>
<path d="M 553 576 Z"/>
<path d="M 521 576 L 521 577 Z"/>
<path d="M 466 574 Z"/>
<path d="M 515 572 L 515 573 Z"/>
<path d="M 520 571 Z"/>
<path d="M 522 569 L 522 570 Z"/>
<path d="M 518 568 Z"/>
<path d="M 516 568 Z"/>
<path d="M 554 567 Z"/>
<path d="M 465 567 L 465 568 Z"/>
<path d="M 518 566 Z"/>
<path d="M 523 565 Z"/>
<path d="M 556 564 L 556 567 Z"/>
<path d="M 557 561 Z"/>
<path d="M 555 561 Z"/>
<path d="M 522 561 L 522 562 Z"/>
<path d="M 518 559 L 518 560 Z"/>
<path d="M 556 558 Z"/>
<path d="M 461 558 Z"/>
<path d="M 746 557 Z"/>
<path d="M 525 557 Z"/>
<path d="M 522 556 L 521 557 L 522 557 L 523 558 L 523 559 L 523 558 L 522 557 Z"/>
<path d="M 462 555 Z"/>
<path d="M 456 555 Z"/>
<path d="M 747 554 L 746 555 L 745 555 L 746 555 Z"/>
<path d="M 743 554 Z"/>
<path d="M 524 554 L 524 555 Z"/>
<path d="M 460 554 L 460 555 Z"/>
<path d="M 749 553 Z"/>
<path d="M 749 550 Z"/>
<path d="M 747 550 L 747 552 Z"/>
<path d="M 732 550 Z"/>
<path d="M 283 550 L 284 551 Z"/>
<path d="M 280 549 Z"/>
<path d="M 733 548 Z"/>
<path d="M 528 548 Z"/>
<path d="M 730 546 L 731 547 Z"/>
<path d="M 456 546 Z"/>
<path d="M 282 546 L 282 548 L 283 548 L 283 547 Z"/>
<path d="M 749 545 Z"/>
<path d="M 526 544 Z"/>
<path d="M 280 543 L 280 544 Z"/>
<path d="M 747 541 L 747 543 Z"/>
<path d="M 725 540 Z"/>
<path d="M 280 540 L 280 541 Z"/>
<path d="M 722 539 Z"/>
<path d="M 720 539 L 720 540 Z"/>
<path d="M 450 539 Z"/>
<path d="M 282 538 L 282 540 Z"/>
<path d="M 574 535 Z"/>
<path d="M 301 534 Z"/>
<path d="M 717 533 Z"/>
<path d="M 714 533 L 715 533 Z"/>
<path d="M 712 533 Z"/>
<path d="M 704 533 Z"/>
<path d="M 706 532 Z"/>
<path d="M 445 532 Z"/>
<path d="M 283 532 L 283 533 Z"/>
<path d="M 712 531 L 715 531 Z"/>
<path d="M 536 531 Z"/>
<path d="M 707 530 Z"/>
<path d="M 699 530 L 699 531 Z"/>
<path d="M 444 530 Z"/>
<path d="M 702 529 Z"/>
<path d="M 284 529 Z"/>
<path d="M 697 528 Z"/>
<path d="M 436 527 Z"/>
<path d="M 432 527 Z"/>
<path d="M 284 527 Z"/>
<path d="M 683 526 L 684 526 Z"/>
<path d="M 676 526 Z"/>
<path d="M 438 526 Z"/>
<path d="M 679 525 Z"/>
<path d="M 537 525 Z"/>
<path d="M 512 525 Z"/>
<path d="M 434 525 Z"/>
<path d="M 674 524 L 673 525 L 674 524 L 675 524 Z"/>
<path d="M 542 524 Z"/>
<path d="M 744 523 Z"/>
<path d="M 672 523 Z"/>
<path d="M 434 523 Z"/>
<path d="M 675 522 Z"/>
<path d="M 432 522 L 432 523 Z"/>
<path d="M 541 521 L 542 522 Z"/>
<path d="M 538 521 Z"/>
<path d="M 510 521 L 510 522 Z"/>
<path d="M 587 520 Z"/>
<path d="M 665 519 Z"/>
<path d="M 660 519 Z"/>
<path d="M 640 519 Z"/>
<path d="M 420 519 Z"/>
<path d="M 597 518 Z"/>
<path d="M 516 518 Z"/>
<path d="M 650 517 Z"/>
<path d="M 607 517 Z"/>
<path d="M 408 517 Z"/>
<path d="M 322 517 Z"/>
<path d="M 655 516 Z"/>
<path d="M 514 516 L 513 517 L 513 518 L 513 517 Z"/>
<path d="M 319 516 Z"/>
<path d="M 273 516 L 272 517 L 272 519 L 273 519 L 272 518 L 274 516 Z"/>
<path d="M 651 515 Z"/>
<path d="M 644 515 Z"/>
<path d="M 640 515 L 642 515 Z"/>
<path d="M 607 515 Z"/>
<path d="M 512 515 Z"/>
<path d="M 330 515 Z"/>
<path d="M 322 515 Z"/>
<path d="M 646 514 Z"/>
<path d="M 412 514 Z"/>
<path d="M 754 513 Z"/>
<path d="M 640 513 L 642 513 Z"/>
<path d="M 517 513 Z"/>
<path d="M 511 513 Z"/>
<path d="M 329 513 L 330 513 Z"/>
<path d="M 632 512 L 635 512 Z"/>
<path d="M 629 512 Z"/>
<path d="M 614 512 L 617 512 Z"/>
<path d="M 550 512 Z"/>
<path d="M 476 512 L 476 517 Z"/>
<path d="M 334 512 L 335 512 Z"/>
<path d="M 277 512 L 277 513 L 276 514 L 275 513 L 274 514 L 273 514 L 276 514 L 277 515 L 276 514 L 277 513 L 278 513 Z"/>
<path d="M 407 511 Z"/>
<path d="M 350 511 L 351 511 Z"/>
<path d="M 756 510 Z"/>
<path d="M 708 510 L 710 510 Z"/>
<path d="M 402 510 Z"/>
<path d="M 393 510 Z"/>
<path d="M 389 510 Z"/>
<path d="M 355 510 L 357 510 Z"/>
<path d="M 732 509 Z"/>
<path d="M 724 509 L 725 510 L 726 510 L 725 510 Z"/>
<path d="M 720 509 L 721 509 Z"/>
<path d="M 701 509 Z"/>
<path d="M 397 509 L 396 510 L 395 510 L 396 510 Z"/>
<path d="M 375 509 Z"/>
<path d="M 372 509 Z"/>
<path d="M 370 509 Z"/>
<path d="M 364 509 Z"/>
<path d="M 351 509 Z"/>
<path d="M 709 508 Z"/>
<path d="M 387 508 L 389 508 Z"/>
<path d="M 357 508 L 360 508 Z"/>
<path d="M 741 507 Z"/>
<path d="M 698 507 Z"/>
<path d="M 693 507 Z"/>
<path d="M 512 507 L 512 508 Z"/>
<path d="M 290 507 Z"/>
<path d="M 746 506 Z"/>
<path d="M 737 506 L 738 506 Z"/>
<path d="M 700 506 Z"/>
<path d="M 749 505 Z"/>
<path d="M 476 505 L 476 510 Z"/>
<path d="M 738 504 Z"/>
<path d="M 686 504 L 687 505 Z"/>
<path d="M 513 504 Z"/>
<path d="M 755 503 L 756 503 Z"/>
<path d="M 758 502 L 758 503 L 759 504 L 759 503 Z"/>
<path d="M 474 501 L 474 502 Z"/>
<path d="M 514 500 Z"/>
<path d="M 308 500 Z"/>
<path d="M 759 499 Z"/>
<path d="M 576 497 Z"/>
<path d="M 573 497 Z"/>
<path d="M 515 497 Z"/>
<path d="M 475 496 L 475 497 Z"/>
<path d="M 473 496 Z"/>
<path d="M 806 495 Z"/>
<path d="M 797 495 L 798 495 Z"/>
<path d="M 661 495 Z"/>
<path d="M 320 495 Z"/>
<path d="M 811 494 Z"/>
<path d="M 804 494 Z"/>
<path d="M 781 494 Z"/>
<path d="M 776 494 Z"/>
<path d="M 516 494 Z"/>
<path d="M 809 493 Z"/>
<path d="M 770 493 Z"/>
<path d="M 656 493 Z"/>
<path d="M 557 493 Z"/>
<path d="M 530 493 Z"/>
<path d="M 473 493 L 473 494 Z"/>
<path d="M 812 492 Z"/>
<path d="M 330 492 Z"/>
<path d="M 245 492 Z"/>
<path d="M 237 492 Z"/>
<path d="M 229 492 Z"/>
<path d="M 773 491 Z"/>
<path d="M 588 491 Z"/>
<path d="M 586 491 Z"/>
<path d="M 517 491 Z"/>
<path d="M 242 491 Z"/>
<path d="M 239 491 L 240 491 Z"/>
<path d="M 771 490 L 770 491 Z"/>
<path d="M 652 490 Z"/>
<path d="M 650 490 Z"/>
<path d="M 474 490 L 474 491 Z"/>
<path d="M 439 490 Z"/>
<path d="M 339 490 Z"/>
<path d="M 331 490 Z"/>
<path d="M 226 490 L 226 491 L 227 490 L 233 490 Z"/>
<path d="M 223 490 Z"/>
<path d="M 646 489 L 645 490 Z"/>
<path d="M 641 489 Z"/>
<path d="M 601 489 L 602 489 L 603 490 L 602 491 L 598 491 L 597 492 L 594 492 L 593 491 L 594 492 L 593 493 L 591 493 L 590 494 L 588 494 L 587 495 L 585 495 L 584 496 L 582 496 L 581 495 L 582 496 L 581 497 L 580 497 L 579 498 L 578 498 L 577 499 L 576 499 L 575 500 L 574 500 L 573 501 L 572 501 L 570 499 L 571 498 L 570 499 L 569 499 L 570 499 L 572 501 L 571 502 L 570 502 L 569 501 L 570 502 L 569 503 L 568 503 L 567 502 L 568 503 L 566 505 L 565 505 L 564 504 L 565 505 L 563 507 L 562 507 L 561 508 L 560 507 L 561 508 L 558 511 L 557 511 L 556 512 L 555 511 L 552 514 L 553 515 L 549 519 L 548 518 L 544 522 L 545 523 L 544 524 L 544 525 L 542 527 L 541 526 L 540 527 L 539 526 L 540 527 L 541 526 L 542 527 L 542 528 L 539 531 L 537 529 L 539 531 L 539 532 L 537 534 L 536 533 L 535 534 L 536 533 L 537 534 L 537 535 L 535 537 L 534 536 L 535 537 L 535 538 L 534 539 L 532 537 L 531 538 L 533 538 L 534 539 L 534 540 L 533 541 L 532 540 L 531 541 L 530 541 L 532 543 L 532 544 L 531 545 L 531 546 L 530 547 L 529 546 L 530 547 L 530 549 L 529 550 L 529 551 L 528 552 L 527 551 L 528 552 L 528 554 L 527 555 L 526 554 L 527 555 L 527 558 L 526 559 L 526 561 L 525 562 L 525 566 L 524 567 L 524 572 L 523 573 L 523 579 L 522 580 L 522 589 L 521 590 L 521 642 L 522 643 L 522 662 L 523 663 L 523 704 L 522 705 L 522 726 L 523 727 L 523 731 L 522 732 L 523 731 L 524 732 L 524 734 L 525 735 L 525 736 L 526 737 L 526 739 L 524 741 L 523 741 L 524 742 L 524 743 L 524 741 L 526 739 L 527 740 L 527 741 L 526 742 L 527 741 L 528 742 L 528 743 L 527 744 L 528 743 L 530 745 L 530 746 L 529 747 L 530 746 L 532 748 L 532 749 L 531 750 L 532 749 L 544 761 L 541 764 L 544 761 L 545 761 L 547 763 L 548 763 L 549 764 L 550 764 L 552 766 L 553 766 L 554 767 L 555 767 L 556 768 L 557 768 L 558 767 L 557 768 L 556 767 L 556 766 L 557 765 L 556 766 L 555 765 L 555 764 L 554 763 L 554 762 L 553 761 L 553 759 L 552 758 L 552 756 L 551 755 L 551 753 L 550 752 L 550 751 L 549 750 L 549 748 L 548 747 L 548 742 L 549 741 L 548 742 L 547 741 L 547 738 L 546 737 L 546 724 L 547 723 L 547 721 L 548 720 L 549 720 L 558 729 L 556 731 L 557 730 L 559 732 L 558 733 L 559 734 L 558 733 L 560 731 L 561 731 L 563 733 L 562 734 L 563 733 L 564 734 L 565 734 L 567 736 L 566 737 L 567 736 L 568 736 L 570 738 L 568 740 L 570 738 L 571 738 L 572 739 L 569 742 L 570 741 L 571 742 L 572 742 L 573 743 L 572 742 L 574 740 L 575 740 L 576 741 L 575 742 L 576 741 L 578 741 L 579 742 L 580 742 L 581 743 L 583 743 L 584 744 L 586 744 L 587 745 L 590 745 L 591 746 L 594 746 L 595 747 L 600 747 L 601 748 L 617 748 L 615 746 L 617 744 L 616 744 L 616 745 L 615 746 L 614 746 L 613 745 L 612 745 L 611 744 L 612 743 L 611 744 L 610 744 L 608 742 L 609 741 L 608 742 L 607 742 L 605 740 L 606 739 L 605 740 L 604 740 L 602 738 L 603 737 L 602 738 L 601 738 L 598 735 L 599 734 L 598 735 L 597 734 L 596 734 L 594 732 L 596 730 L 597 730 L 596 730 L 595 731 L 594 730 L 593 731 L 592 730 L 591 730 L 589 728 L 590 727 L 588 725 L 587 726 L 586 726 L 582 722 L 583 721 L 582 722 L 580 720 L 581 719 L 580 718 L 580 717 L 580 718 L 579 719 L 577 717 L 576 717 L 575 716 L 575 715 L 571 711 L 572 710 L 571 711 L 569 709 L 570 708 L 568 706 L 567 707 L 564 704 L 564 703 L 563 702 L 564 701 L 563 702 L 561 700 L 561 699 L 563 697 L 564 698 L 564 699 L 565 698 L 566 699 L 567 699 L 566 698 L 567 697 L 767 697 L 567 697 L 566 698 L 565 698 L 564 697 L 563 697 L 562 698 L 561 697 L 560 698 L 559 697 L 559 696 L 560 695 L 766 695 L 771 690 L 772 691 L 771 690 L 771 689 L 774 686 L 774 685 L 777 682 L 778 683 L 777 682 L 777 681 L 779 679 L 779 678 L 781 676 L 781 675 L 554 675 L 553 674 L 553 661 L 552 660 L 552 642 L 551 641 L 551 613 L 550 612 L 550 588 L 551 587 L 551 573 L 552 572 L 552 566 L 553 565 L 553 560 L 554 559 L 554 557 L 555 556 L 555 554 L 556 553 L 557 554 L 556 553 L 556 551 L 557 550 L 558 551 L 557 550 L 557 548 L 558 547 L 558 546 L 559 545 L 559 544 L 561 542 L 562 543 L 561 542 L 561 541 L 563 539 L 564 540 L 563 539 L 563 538 L 565 536 L 566 537 L 567 536 L 566 537 L 565 536 L 565 535 L 569 531 L 571 533 L 570 532 L 572 530 L 571 529 L 575 525 L 576 525 L 577 524 L 580 527 L 581 526 L 579 526 L 577 524 L 579 522 L 580 522 L 581 521 L 582 521 L 583 522 L 582 521 L 583 520 L 584 520 L 585 521 L 584 520 L 586 518 L 587 518 L 588 517 L 590 517 L 591 518 L 590 517 L 591 516 L 592 516 L 593 517 L 592 516 L 593 515 L 595 515 L 596 516 L 595 515 L 596 514 L 598 514 L 599 513 L 602 513 L 603 514 L 602 513 L 603 512 L 607 512 L 608 513 L 607 512 L 608 511 L 612 511 L 613 510 L 636 510 L 637 511 L 643 511 L 644 512 L 648 512 L 649 513 L 652 513 L 653 514 L 656 514 L 657 515 L 659 515 L 660 516 L 659 517 L 660 516 L 663 516 L 664 517 L 666 517 L 667 518 L 669 518 L 670 519 L 672 519 L 673 520 L 676 520 L 677 521 L 679 521 L 680 522 L 682 522 L 683 523 L 682 524 L 683 523 L 686 523 L 687 524 L 690 524 L 691 525 L 694 525 L 695 526 L 698 526 L 699 527 L 703 527 L 704 528 L 709 528 L 710 529 L 718 529 L 719 530 L 720 530 L 721 531 L 720 532 L 719 532 L 720 532 L 721 533 L 722 532 L 725 535 L 725 536 L 724 537 L 723 536 L 725 538 L 726 537 L 736 547 L 735 548 L 736 547 L 737 547 L 740 550 L 739 551 L 740 550 L 741 550 L 743 552 L 744 552 L 745 553 L 745 537 L 744 536 L 744 534 L 743 533 L 743 531 L 744 530 L 743 531 L 742 530 L 742 529 L 740 527 L 740 524 L 741 523 L 743 525 L 742 526 L 743 525 L 741 523 L 744 520 L 745 520 L 746 521 L 745 520 L 752 513 L 752 512 L 754 510 L 754 509 L 755 508 L 755 507 L 757 505 L 758 506 L 758 507 L 757 508 L 758 507 L 758 506 L 757 505 L 753 505 L 752 506 L 751 506 L 750 507 L 748 507 L 747 508 L 743 508 L 742 509 L 739 509 L 738 510 L 734 510 L 733 511 L 729 511 L 728 512 L 706 512 L 705 511 L 700 511 L 699 510 L 696 510 L 695 509 L 692 509 L 691 508 L 689 508 L 688 507 L 686 507 L 685 506 L 683 506 L 682 505 L 680 505 L 679 504 L 678 504 L 677 503 L 678 502 L 677 503 L 675 503 L 674 502 L 675 501 L 674 502 L 673 502 L 672 501 L 674 499 L 672 501 L 670 501 L 669 500 L 668 500 L 667 499 L 666 499 L 665 498 L 666 497 L 665 498 L 663 498 L 662 497 L 660 497 L 659 496 L 658 496 L 657 495 L 655 495 L 654 494 L 652 494 L 651 493 L 648 493 L 647 492 L 644 492 L 643 491 L 639 491 L 638 490 L 633 490 L 632 489 L 612 489 L 611 490 L 603 490 L 602 489 Z"/>
<path d="M 586 489 Z"/>
<path d="M 436 489 Z"/>
<path d="M 343 489 L 344 489 Z"/>
<path d="M 241 489 L 243 489 Z"/>
<path d="M 607 488 L 608 488 Z"/>
<path d="M 597 488 L 599 488 Z"/>
<path d="M 531 488 Z"/>
<path d="M 439 488 Z"/>
<path d="M 815 487 L 816 488 L 816 490 L 816 488 Z"/>
<path d="M 360 487 L 363 487 Z"/>
<path d="M 580 486 Z"/>
<path d="M 253 486 Z"/>
<path d="M 223 486 L 223 487 Z"/>
<path d="M 664 485 Z"/>
<path d="M 362 485 L 363 485 Z"/>
<path d="M 760 484 Z"/>
<path d="M 693 484 Z"/>
<path d="M 685 484 Z"/>
<path d="M 677 484 L 678 484 Z"/>
<path d="M 674 484 Z"/>
<path d="M 473 484 L 473 485 Z"/>
<path d="M 698 483 Z"/>
<path d="M 696 483 Z"/>
<path d="M 688 483 Z"/>
<path d="M 672 483 Z"/>
<path d="M 664 483 Z"/>
<path d="M 539 483 Z"/>
<path d="M 424 483 Z"/>
<path d="M 366 483 L 365 484 Z"/>
<path d="M 259 483 Z"/>
<path d="M 224 483 Z"/>
<path d="M 690 482 L 692 482 Z"/>
<path d="M 676 482 L 677 482 Z"/>
<path d="M 667 482 L 668 482 Z"/>
<path d="M 430 482 Z"/>
<path d="M 416 482 Z"/>
<path d="M 813 481 Z"/>
<path d="M 697 481 Z"/>
<path d="M 670 481 Z"/>
<path d="M 538 481 Z"/>
<path d="M 536 481 Z"/>
<path d="M 420 481 L 421 481 Z"/>
<path d="M 418 481 Z"/>
<path d="M 413 481 Z"/>
<path d="M 361 481 Z"/>
<path d="M 576 480 L 583 480 Z"/>
<path d="M 543 480 Z"/>
<path d="M 224 480 Z"/>
<path d="M 709 479 Z"/>
<path d="M 600 479 Z"/>
<path d="M 592 479 Z"/>
<path d="M 472 479 L 472 481 Z"/>
<path d="M 756 478 Z"/>
<path d="M 752 478 Z"/>
<path d="M 707 478 Z"/>
<path d="M 652 478 Z"/>
<path d="M 596 478 L 597 478 Z"/>
<path d="M 566 478 Z"/>
<path d="M 461 478 Z"/>
<path d="M 436 478 Z"/>
<path d="M 332 478 L 333 478 Z"/>
<path d="M 316 478 Z"/>
<path d="M 601 477 L 602 477 Z"/>
<path d="M 360 477 Z"/>
<path d="M 335 477 L 338 477 L 340 479 L 341 478 L 341 477 Z"/>
<path d="M 322 477 L 323 477 L 324 478 L 323 477 Z"/>
<path d="M 320 477 Z"/>
<path d="M 712 476 Z"/>
<path d="M 604 476 L 605 477 L 604 478 L 606 478 Z"/>
<path d="M 573 476 Z"/>
<path d="M 471 476 L 471 477 Z"/>
<path d="M 443 476 L 442 477 L 443 478 L 444 478 L 444 477 L 445 476 L 451 476 L 452 477 L 452 478 L 452 477 L 453 476 Z"/>
<path d="M 433 476 Z"/>
<path d="M 325 476 L 326 476 Z"/>
<path d="M 268 476 L 266 478 L 267 477 L 268 478 L 267 477 Z"/>
<path d="M 607 475 Z"/>
<path d="M 437 475 Z"/>
<path d="M 345 475 L 345 476 L 344 477 L 345 476 Z"/>
<path d="M 460 474 L 460 475 Z"/>
<path d="M 433 474 Z"/>
<path d="M 426 474 Z"/>
<path d="M 360 474 Z"/>
<path d="M 547 473 Z"/>
<path d="M 527 473 Z"/>
<path d="M 429 473 Z"/>
<path d="M 346 473 Z"/>
<path d="M 316 473 Z"/>
<path d="M 754 472 L 753 473 L 753 474 L 754 475 L 755 474 L 754 474 L 753 473 Z"/>
<path d="M 470 472 L 470 473 Z"/>
<path d="M 229 472 Z"/>
<path d="M 803 471 L 804 472 Z"/>
<path d="M 617 471 Z"/>
<path d="M 461 471 Z"/>
<path d="M 423 471 Z"/>
<path d="M 312 471 Z"/>
<path d="M 420 470 Z"/>
<path d="M 275 470 Z"/>
<path d="M 727 469 Z"/>
<path d="M 724 469 Z"/>
<path d="M 469 469 L 468 470 L 467 470 L 468 470 Z"/>
<path d="M 464 469 Z"/>
<path d="M 460 469 Z"/>
<path d="M 415 469 Z"/>
<path d="M 408 469 Z"/>
<path d="M 413 468 Z"/>
<path d="M 274 468 Z"/>
<path d="M 752 467 L 752 468 Z"/>
<path d="M 658 467 Z"/>
<path d="M 408 467 L 409 467 Z"/>
<path d="M 352 467 Z"/>
<path d="M 462 466 Z"/>
<path d="M 413 466 Z"/>
<path d="M 752 464 L 752 465 Z"/>
<path d="M 563 464 L 562 465 L 562 466 L 562 465 L 563 464 L 564 465 Z"/>
<path d="M 465 464 L 466 465 L 466 468 L 467 468 L 467 467 L 468 466 L 467 467 L 466 466 L 466 465 Z"/>
<path d="M 410 464 Z"/>
<path d="M 756 463 L 757 463 Z"/>
<path d="M 573 463 L 573 464 Z"/>
<path d="M 455 463 Z"/>
<path d="M 341 463 Z"/>
<path d="M 787 462 Z"/>
<path d="M 766 462 L 765 463 L 762 463 L 761 464 L 759 464 L 758 465 L 756 465 L 755 466 L 754 466 L 754 468 L 755 469 L 755 470 L 756 471 L 756 472 L 757 473 L 757 474 L 759 476 L 759 477 L 763 481 L 763 482 L 762 483 L 761 482 L 763 484 L 761 486 L 762 485 L 763 486 L 765 484 L 766 484 L 768 486 L 767 487 L 768 488 L 769 487 L 770 487 L 771 488 L 772 488 L 773 489 L 774 489 L 776 491 L 775 492 L 776 491 L 778 491 L 779 492 L 782 492 L 783 493 L 801 493 L 802 492 L 806 492 L 807 491 L 810 491 L 811 490 L 813 490 L 814 489 L 813 488 L 813 487 L 812 486 L 812 485 L 810 483 L 810 482 L 808 480 L 808 479 L 798 469 L 799 468 L 798 469 L 797 469 L 795 467 L 796 466 L 795 467 L 794 467 L 793 466 L 792 466 L 791 465 L 790 465 L 789 464 L 790 463 L 789 464 L 786 464 L 785 463 L 782 463 L 781 462 Z"/>
<path d="M 760 462 Z"/>
<path d="M 582 462 Z"/>
<path d="M 570 462 Z"/>
<path d="M 783 461 L 784 461 Z"/>
<path d="M 763 461 L 764 461 Z"/>
<path d="M 572 461 L 573 461 Z"/>
<path d="M 509 461 Z"/>
<path d="M 788 460 Z"/>
<path d="M 772 460 L 774 460 Z"/>
<path d="M 278 460 Z"/>
<path d="M 784 459 Z"/>
<path d="M 780 459 Z"/>
<path d="M 665 459 L 666 459 Z"/>
<path d="M 464 459 Z"/>
<path d="M 402 459 L 402 460 L 403 459 Z"/>
<path d="M 296 459 L 297 460 L 297 459 Z"/>
<path d="M 778 458 L 778 459 L 777 460 L 776 460 L 777 460 L 778 459 Z"/>
<path d="M 570 458 Z"/>
<path d="M 279 458 Z"/>
<path d="M 574 456 L 573 457 Z"/>
<path d="M 400 456 L 400 457 Z"/>
<path d="M 584 455 Z"/>
<path d="M 280 455 Z"/>
<path d="M 586 454 Z"/>
<path d="M 295 454 Z"/>
<path d="M 584 453 Z"/>
<path d="M 282 453 Z"/>
<path d="M 738 452 Z"/>
<path d="M 294 452 Z"/>
<path d="M 285 452 Z"/>
<path d="M 676 451 Z"/>
<path d="M 674 451 Z"/>
<path d="M 499 451 Z"/>
<path d="M 463 451 Z"/>
<path d="M 287 451 Z"/>
<path d="M 280 451 L 280 452 Z"/>
<path d="M 262 451 L 261 452 L 256 452 L 255 453 L 252 453 L 251 452 L 252 453 L 251 454 L 250 454 L 249 455 L 248 455 L 247 454 L 248 455 L 246 457 L 245 457 L 244 456 L 245 455 L 244 456 L 245 457 L 243 459 L 242 459 L 241 458 L 242 457 L 241 458 L 242 459 L 234 467 L 233 466 L 234 467 L 234 468 L 232 470 L 231 469 L 232 470 L 232 471 L 231 472 L 231 473 L 229 475 L 228 474 L 229 475 L 229 476 L 228 477 L 227 476 L 228 477 L 228 478 L 227 479 L 226 478 L 227 479 L 227 481 L 226 482 L 226 484 L 225 485 L 225 488 L 239 488 L 240 487 L 246 487 L 247 488 L 246 487 L 247 486 L 249 486 L 250 485 L 251 485 L 252 484 L 254 484 L 256 486 L 254 484 L 255 483 L 256 483 L 257 484 L 256 483 L 258 481 L 259 481 L 260 480 L 261 480 L 262 481 L 261 480 L 271 470 L 272 471 L 271 470 L 271 469 L 272 468 L 272 467 L 274 465 L 278 469 L 276 467 L 277 466 L 276 467 L 274 465 L 274 464 L 275 463 L 276 464 L 275 463 L 275 462 L 276 461 L 276 459 L 277 458 L 277 457 L 278 456 L 278 453 L 275 453 L 274 452 L 267 452 L 266 451 Z"/>
<path d="M 254 451 Z"/>
<path d="M 248 451 Z"/>
<path d="M 589 450 Z"/>
<path d="M 515 450 Z"/>
<path d="M 293 450 Z"/>
<path d="M 272 450 Z"/>
<path d="M 259 450 Z"/>
<path d="M 741 448 L 741 449 Z"/>
<path d="M 684 448 Z"/>
<path d="M 588 448 L 587 449 L 588 448 L 589 448 Z"/>
<path d="M 370 448 L 371 449 Z"/>
<path d="M 273 448 Z"/>
<path d="M 733 447 Z"/>
<path d="M 686 447 Z"/>
<path d="M 592 447 Z"/>
<path d="M 462 447 Z"/>
<path d="M 940 446 Z"/>
<path d="M 689 446 Z"/>
<path d="M 459 446 L 460 447 Z"/>
<path d="M 732 445 Z"/>
<path d="M 727 445 Z"/>
<path d="M 692 445 Z"/>
<path d="M 456 445 Z"/>
<path d="M 394 445 Z"/>
<path d="M 338 445 L 340 447 L 339 446 L 340 445 L 339 446 Z"/>
<path d="M 723 444 Z"/>
<path d="M 695 444 L 697 444 L 698 445 L 697 446 L 694 446 L 693 447 L 691 447 L 690 448 L 688 448 L 687 449 L 686 449 L 685 450 L 684 450 L 683 451 L 682 451 L 681 452 L 680 452 L 678 454 L 677 454 L 676 453 L 677 454 L 675 456 L 674 456 L 673 455 L 672 456 L 673 457 L 664 466 L 662 464 L 664 466 L 664 467 L 660 471 L 659 470 L 657 472 L 656 472 L 657 472 L 659 470 L 660 471 L 660 472 L 657 475 L 656 474 L 655 475 L 654 474 L 655 475 L 655 477 L 656 477 L 655 476 L 656 475 L 657 475 L 658 476 L 660 476 L 661 477 L 662 477 L 663 478 L 666 478 L 667 479 L 666 480 L 665 480 L 666 480 L 667 479 L 672 479 L 673 480 L 679 480 L 680 481 L 685 481 L 686 480 L 695 480 L 696 479 L 700 479 L 701 480 L 700 479 L 701 478 L 703 478 L 704 479 L 703 478 L 704 477 L 705 477 L 706 476 L 708 476 L 709 477 L 708 476 L 709 475 L 710 475 L 711 474 L 712 474 L 713 473 L 714 473 L 716 475 L 714 473 L 716 471 L 717 471 L 718 472 L 717 471 L 719 469 L 720 469 L 721 468 L 722 469 L 721 468 L 724 465 L 725 465 L 727 463 L 728 464 L 731 461 L 730 462 L 729 461 L 729 460 L 734 455 L 735 456 L 734 455 L 734 454 L 736 452 L 736 451 L 737 450 L 738 450 L 739 449 L 739 448 L 738 448 L 737 449 L 736 448 L 737 449 L 736 450 L 735 450 L 734 449 L 732 449 L 731 448 L 730 448 L 729 447 L 726 447 L 725 446 L 722 446 L 721 445 L 714 445 L 713 444 L 705 444 L 704 445 L 698 445 L 697 444 Z"/>
<path d="M 438 444 Z"/>
<path d="M 725 443 L 726 443 Z"/>
<path d="M 716 443 L 718 443 Z"/>
<path d="M 701 443 L 703 443 Z"/>
<path d="M 690 443 Z"/>
<path d="M 461 443 Z"/>
<path d="M 393 443 L 392 444 Z"/>
<path d="M 338 443 L 339 443 Z"/>
<path d="M 336 443 Z"/>
<path d="M 699 442 Z"/>
<path d="M 491 442 Z"/>
<path d="M 311 442 Z"/>
<path d="M 296 442 L 295 443 L 292 443 L 292 445 L 293 446 L 293 447 L 292 448 L 293 447 L 295 449 L 295 450 L 296 451 L 296 452 L 297 453 L 297 454 L 298 455 L 298 456 L 297 457 L 298 456 L 302 460 L 302 461 L 301 462 L 300 461 L 302 463 L 303 462 L 306 465 L 305 466 L 306 467 L 305 468 L 306 467 L 305 466 L 306 465 L 307 465 L 311 469 L 309 471 L 311 469 L 313 469 L 315 471 L 314 472 L 315 471 L 317 471 L 318 472 L 319 472 L 320 473 L 322 473 L 323 474 L 322 475 L 323 474 L 327 474 L 328 475 L 343 475 L 343 474 L 344 473 L 344 472 L 344 473 L 343 474 L 342 473 L 342 472 L 341 471 L 341 470 L 340 469 L 340 468 L 339 467 L 339 466 L 337 464 L 337 463 L 338 462 L 337 463 L 335 461 L 335 460 L 334 459 L 335 458 L 334 459 L 326 451 L 325 451 L 323 449 L 322 449 L 320 447 L 321 446 L 320 447 L 319 447 L 318 446 L 316 446 L 315 445 L 314 445 L 313 444 L 314 443 L 314 442 L 314 443 L 313 444 L 310 444 L 309 443 L 303 443 L 302 442 Z"/>
<path d="M 289 442 L 288 443 L 288 445 L 288 443 L 289 442 L 290 442 Z"/>
<path d="M 722 441 L 721 442 L 722 442 Z"/>
<path d="M 690 441 Z"/>
<path d="M 598 441 Z"/>
<path d="M 595 441 Z"/>
<path d="M 459 441 Z"/>
<path d="M 436 441 L 435 442 L 436 441 L 437 442 Z"/>
<path d="M 392 441 Z"/>
<path d="M 338 441 Z"/>
<path d="M 306 441 L 307 441 Z"/>
<path d="M 292 441 L 293 441 Z"/>
<path d="M 767 440 L 769 440 Z"/>
<path d="M 758 440 L 759 440 Z"/>
<path d="M 289 440 Z"/>
<path d="M 774 439 Z"/>
<path d="M 752 439 Z"/>
<path d="M 667 439 Z"/>
<path d="M 572 439 Z"/>
<path d="M 430 439 Z"/>
<path d="M 391 439 Z"/>
<path d="M 337 439 L 336 440 Z"/>
<path d="M 777 438 Z"/>
<path d="M 748 438 Z"/>
<path d="M 743 438 Z"/>
<path d="M 670 438 Z"/>
<path d="M 458 438 Z"/>
<path d="M 780 437 Z"/>
<path d="M 745 437 Z"/>
<path d="M 677 437 L 676 438 L 677 439 L 678 439 L 677 439 L 676 438 Z"/>
<path d="M 673 437 Z"/>
<path d="M 604 437 L 605 438 Z"/>
<path d="M 428 437 Z"/>
<path d="M 425 437 Z"/>
<path d="M 390 437 Z"/>
<path d="M 782 436 Z"/>
<path d="M 784 435 Z"/>
<path d="M 740 435 L 739 436 L 739 438 L 739 436 Z"/>
<path d="M 495 435 Z"/>
<path d="M 458 435 L 459 435 Z"/>
<path d="M 426 435 Z"/>
<path d="M 424 435 Z"/>
<path d="M 400 435 L 399 436 L 394 436 L 393 437 L 392 437 L 393 438 L 393 439 L 394 440 L 394 441 L 395 442 L 395 443 L 396 444 L 396 445 L 397 446 L 397 447 L 396 448 L 397 447 L 399 449 L 399 450 L 397 452 L 396 451 L 397 452 L 399 450 L 403 454 L 403 455 L 402 456 L 403 455 L 410 462 L 411 462 L 413 464 L 414 464 L 416 466 L 417 466 L 418 467 L 419 467 L 420 468 L 421 468 L 422 469 L 424 469 L 425 470 L 426 470 L 427 471 L 426 472 L 427 471 L 430 471 L 431 472 L 434 472 L 435 473 L 439 473 L 440 474 L 458 474 L 458 473 L 457 472 L 457 470 L 456 469 L 456 468 L 457 467 L 456 468 L 455 467 L 455 466 L 456 465 L 455 466 L 453 464 L 453 463 L 452 462 L 452 461 L 453 460 L 452 461 L 450 459 L 450 458 L 451 457 L 452 458 L 451 457 L 450 458 L 446 454 L 446 453 L 445 452 L 446 451 L 444 449 L 443 450 L 442 450 L 439 447 L 440 446 L 439 447 L 438 446 L 437 446 L 435 444 L 434 444 L 432 442 L 431 442 L 430 441 L 429 441 L 428 440 L 427 440 L 426 439 L 424 439 L 423 438 L 421 438 L 420 437 L 421 436 L 420 437 L 416 437 L 415 436 L 408 436 L 407 435 L 402 435 L 401 436 Z"/>
<path d="M 390 435 Z"/>
<path d="M 789 434 L 788 435 Z"/>
<path d="M 786 434 Z"/>
<path d="M 738 434 Z"/>
<path d="M 736 434 Z"/>
<path d="M 609 434 L 610 434 L 611 435 L 610 434 Z"/>
<path d="M 523 434 Z"/>
<path d="M 420 434 L 421 434 Z"/>
<path d="M 412 434 Z"/>
<path d="M 396 434 Z"/>
<path d="M 663 433 L 663 437 Z"/>
<path d="M 487 433 Z"/>
<path d="M 426 433 Z"/>
<path d="M 418 433 L 418 434 L 417 435 L 418 435 Z"/>
<path d="M 416 433 Z"/>
<path d="M 391 433 Z"/>
<path d="M 789 432 Z"/>
<path d="M 619 432 Z"/>
<path d="M 614 432 Z"/>
<path d="M 612 432 L 612 433 Z"/>
<path d="M 520 432 Z"/>
<path d="M 685 431 Z"/>
<path d="M 635 431 L 634 432 L 625 432 L 624 433 L 621 433 L 620 434 L 617 434 L 616 435 L 615 435 L 614 436 L 613 436 L 612 437 L 610 437 L 609 436 L 610 437 L 609 438 L 608 438 L 607 437 L 608 438 L 606 440 L 605 440 L 604 441 L 603 441 L 601 443 L 600 443 L 599 444 L 598 443 L 599 444 L 590 453 L 589 452 L 588 453 L 589 454 L 589 455 L 587 457 L 586 456 L 587 457 L 586 458 L 586 459 L 585 460 L 585 461 L 584 462 L 584 463 L 582 465 L 581 464 L 582 465 L 582 466 L 581 467 L 580 466 L 581 467 L 581 469 L 580 470 L 580 471 L 579 472 L 578 471 L 579 472 L 579 474 L 578 475 L 578 478 L 586 478 L 587 477 L 594 477 L 595 476 L 599 476 L 600 475 L 602 475 L 603 474 L 605 474 L 606 473 L 608 473 L 609 474 L 608 473 L 609 472 L 610 472 L 611 471 L 612 471 L 613 472 L 612 471 L 613 470 L 614 470 L 615 471 L 614 470 L 616 468 L 617 468 L 618 469 L 617 468 L 620 465 L 621 465 L 622 466 L 623 465 L 622 464 L 627 459 L 628 460 L 629 459 L 628 458 L 628 457 L 631 454 L 631 453 L 633 451 L 634 452 L 633 451 L 633 450 L 634 449 L 634 448 L 635 447 L 635 446 L 636 445 L 637 446 L 636 445 L 636 443 L 637 442 L 637 440 L 638 439 L 638 437 L 639 436 L 640 437 L 640 438 L 640 437 L 639 436 L 639 431 Z"/>
<path d="M 333 431 Z"/>
<path d="M 795 430 Z"/>
<path d="M 792 430 Z"/>
<path d="M 641 430 L 641 431 Z"/>
<path d="M 629 430 L 630 430 Z"/>
<path d="M 458 430 L 458 431 L 457 432 L 457 433 L 457 432 L 458 431 Z"/>
<path d="M 456 430 Z"/>
<path d="M 625 429 Z"/>
<path d="M 332 429 Z"/>
<path d="M 329 429 L 330 429 Z"/>
<path d="M 647 427 Z"/>
<path d="M 639 427 Z"/>
<path d="M 634 427 Z"/>
<path d="M 630 427 Z"/>
<path d="M 331 427 Z"/>
<path d="M 329 427 Z"/>
<path d="M 737 426 Z"/>
<path d="M 528 425 Z"/>
<path d="M 330 425 Z"/>
<path d="M 663 424 L 663 425 Z"/>
<path d="M 633 424 Z"/>
<path d="M 457 424 L 457 425 Z"/>
<path d="M 275 424 L 279 424 Z"/>
<path d="M 807 423 Z"/>
<path d="M 801 423 Z"/>
<path d="M 300 423 Z"/>
<path d="M 286 423 L 287 423 Z"/>
<path d="M 696 422 Z"/>
<path d="M 492 422 Z"/>
<path d="M 485 422 Z"/>
<path d="M 291 422 L 292 422 Z"/>
<path d="M 262 422 L 261 423 L 260 423 L 261 423 Z"/>
<path d="M 699 421 L 698 422 Z"/>
<path d="M 295 421 Z"/>
<path d="M 530 420 Z"/>
<path d="M 484 420 L 483 421 Z"/>
<path d="M 298 420 Z"/>
<path d="M 252 420 Z"/>
<path d="M 528 419 Z"/>
<path d="M 377 419 L 378 419 Z"/>
<path d="M 456 418 L 456 419 Z"/>
<path d="M 383 418 L 384 419 L 385 418 L 388 418 Z"/>
<path d="M 664 417 Z"/>
<path d="M 530 417 L 531 418 L 532 418 L 531 417 Z"/>
<path d="M 492 417 Z"/>
<path d="M 377 417 L 378 417 Z"/>
<path d="M 805 416 L 806 417 L 807 417 L 806 417 Z"/>
<path d="M 586 416 Z"/>
<path d="M 533 416 Z"/>
<path d="M 373 416 Z"/>
<path d="M 502 415 Z"/>
<path d="M 326 415 Z"/>
<path d="M 360 414 Z"/>
<path d="M 324 414 L 324 415 Z"/>
<path d="M 665 413 Z"/>
<path d="M 508 413 Z"/>
<path d="M 505 413 Z"/>
<path d="M 491 413 Z"/>
<path d="M 364 413 L 363 414 L 364 415 L 363 414 Z"/>
<path d="M 340 413 Z"/>
<path d="M 325 412 Z"/>
<path d="M 241 412 L 240 413 Z"/>
<path d="M 796 411 Z"/>
<path d="M 753 411 L 754 411 Z"/>
<path d="M 704 411 Z"/>
<path d="M 664 411 Z"/>
<path d="M 536 411 L 536 412 Z"/>
<path d="M 480 411 Z"/>
<path d="M 455 411 L 455 412 Z"/>
<path d="M 790 410 Z"/>
<path d="M 759 410 Z"/>
<path d="M 613 410 L 613 412 L 614 411 L 615 412 L 616 411 L 614 411 Z"/>
<path d="M 388 410 L 388 412 Z"/>
<path d="M 787 409 Z"/>
<path d="M 755 409 L 758 412 L 757 413 L 756 413 L 755 414 L 754 414 L 753 415 L 752 415 L 751 414 L 752 415 L 749 418 L 748 418 L 747 417 L 748 418 L 745 421 L 744 421 L 743 422 L 742 421 L 741 422 L 740 421 L 741 422 L 739 424 L 741 422 L 742 423 L 742 424 L 737 429 L 736 428 L 735 429 L 736 430 L 736 431 L 735 432 L 733 430 L 735 432 L 736 431 L 737 431 L 738 432 L 739 432 L 740 433 L 741 433 L 742 434 L 743 434 L 744 435 L 743 436 L 744 435 L 746 435 L 747 436 L 749 436 L 750 437 L 754 437 L 755 438 L 772 438 L 773 437 L 775 437 L 776 436 L 778 436 L 779 435 L 780 435 L 781 434 L 782 434 L 783 433 L 784 433 L 785 432 L 786 432 L 788 430 L 789 430 L 791 428 L 792 428 L 802 418 L 803 419 L 804 419 L 805 420 L 804 419 L 804 418 L 803 419 L 801 417 L 800 417 L 799 416 L 798 416 L 797 415 L 796 415 L 795 414 L 794 414 L 793 413 L 792 413 L 791 412 L 793 410 L 791 412 L 789 412 L 788 411 L 786 411 L 785 410 L 779 410 L 778 409 L 770 409 L 769 410 L 765 410 L 764 411 L 761 411 L 760 412 L 758 412 Z"/>
<path d="M 666 409 Z"/>
<path d="M 664 409 Z"/>
<path d="M 617 409 Z"/>
<path d="M 357 409 Z"/>
<path d="M 336 409 L 337 410 Z"/>
<path d="M 324 409 Z"/>
<path d="M 789 408 Z"/>
<path d="M 781 408 L 782 408 Z"/>
<path d="M 624 407 Z"/>
<path d="M 627 406 Z"/>
<path d="M 453 406 Z"/>
<path d="M 439 406 Z"/>
<path d="M 437 406 L 436 407 Z"/>
<path d="M 235 406 Z"/>
<path d="M 707 405 L 708 406 L 708 407 L 708 406 Z"/>
<path d="M 666 405 Z"/>
<path d="M 610 405 Z"/>
<path d="M 515 405 L 516 406 Z"/>
<path d="M 478 405 Z"/>
<path d="M 434 405 Z"/>
<path d="M 323 405 L 323 406 Z"/>
<path d="M 320 405 Z"/>
<path d="M 233 405 Z"/>
<path d="M 545 404 L 544 405 Z"/>
<path d="M 479 403 Z"/>
<path d="M 454 403 L 454 404 Z"/>
<path d="M 432 403 Z"/>
<path d="M 387 403 L 387 404 Z"/>
<path d="M 326 403 Z"/>
<path d="M 667 402 L 667 403 L 668 404 L 667 403 Z"/>
<path d="M 592 402 Z"/>
<path d="M 547 402 Z"/>
<path d="M 477 402 Z"/>
<path d="M 452 402 L 452 404 Z"/>
<path d="M 435 402 L 434 403 L 435 402 L 436 402 Z"/>
<path d="M 300 402 Z"/>
<path d="M 599 401 Z"/>
<path d="M 333 401 Z"/>
<path d="M 709 400 L 710 401 Z"/>
<path d="M 610 400 Z"/>
<path d="M 489 400 L 490 401 L 490 404 L 490 401 Z"/>
<path d="M 478 400 Z"/>
<path d="M 428 400 Z"/>
<path d="M 388 400 Z"/>
<path d="M 321 400 L 320 401 L 320 403 L 320 401 L 321 400 L 322 401 L 323 401 L 322 400 Z"/>
<path d="M 593 399 Z"/>
<path d="M 524 399 Z"/>
<path d="M 520 399 Z"/>
<path d="M 439 399 Z"/>
<path d="M 425 399 Z"/>
<path d="M 346 398 Z"/>
<path d="M 418 397 L 417 398 L 416 398 L 416 399 L 418 397 L 419 398 L 420 398 L 419 398 Z"/>
<path d="M 385 397 Z"/>
<path d="M 292 397 Z"/>
<path d="M 710 396 Z"/>
<path d="M 612 396 L 612 407 Z"/>
<path d="M 438 395 Z"/>
<path d="M 386 395 Z"/>
<path d="M 290 395 Z"/>
<path d="M 232 395 Z"/>
<path d="M 453 394 L 453 396 Z"/>
<path d="M 415 394 Z"/>
<path d="M 384 394 Z"/>
<path d="M 491 393 L 491 394 Z"/>
<path d="M 237 393 Z"/>
<path d="M 711 392 Z"/>
<path d="M 555 392 L 556 393 L 557 392 Z"/>
<path d="M 526 392 Z"/>
<path d="M 412 392 Z"/>
<path d="M 409 392 Z"/>
<path d="M 342 392 Z"/>
<path d="M 282 392 Z"/>
<path d="M 239 392 L 240 392 L 241 393 L 241 392 Z"/>
<path d="M 595 391 L 595 392 Z"/>
<path d="M 246 391 Z"/>
<path d="M 613 390 Z"/>
<path d="M 597 390 Z"/>
<path d="M 565 390 Z"/>
<path d="M 403 390 L 404 390 Z"/>
<path d="M 249 390 Z"/>
<path d="M 759 389 Z"/>
<path d="M 746 389 L 747 389 Z"/>
<path d="M 737 389 L 738 389 Z"/>
<path d="M 492 389 Z"/>
<path d="M 336 389 L 337 390 Z"/>
<path d="M 316 389 L 317 390 L 317 389 Z"/>
<path d="M 314 389 Z"/>
<path d="M 306 389 L 307 389 Z"/>
<path d="M 263 389 L 262 390 L 256 390 L 255 391 L 252 391 L 251 392 L 248 392 L 247 393 L 245 393 L 244 394 L 243 394 L 242 395 L 240 395 L 239 396 L 238 396 L 237 397 L 236 397 L 233 400 L 234 399 L 237 402 L 237 403 L 236 404 L 235 403 L 234 403 L 235 403 L 236 404 L 237 403 L 247 413 L 248 413 L 250 415 L 248 417 L 249 416 L 250 417 L 249 416 L 250 415 L 251 415 L 253 417 L 252 418 L 253 417 L 255 417 L 257 419 L 256 420 L 257 419 L 259 419 L 260 420 L 263 420 L 264 421 L 267 421 L 268 422 L 282 422 L 283 421 L 289 421 L 290 420 L 293 420 L 294 419 L 296 419 L 297 418 L 300 418 L 301 419 L 300 418 L 301 417 L 302 417 L 303 418 L 304 418 L 305 417 L 305 416 L 305 417 L 304 418 L 303 418 L 302 417 L 303 416 L 301 414 L 301 413 L 300 412 L 300 411 L 301 410 L 300 411 L 298 409 L 298 408 L 299 407 L 300 408 L 299 407 L 298 408 L 296 406 L 296 405 L 295 404 L 296 403 L 292 399 L 291 400 L 289 398 L 288 398 L 286 396 L 287 395 L 286 396 L 285 396 L 283 394 L 281 394 L 279 392 L 277 392 L 276 391 L 273 391 L 272 390 L 264 390 Z"/>
<path d="M 253 389 Z"/>
<path d="M 676 388 L 676 389 Z"/>
<path d="M 526 388 Z"/>
<path d="M 400 388 Z"/>
<path d="M 310 388 Z"/>
<path d="M 301 388 Z"/>
<path d="M 276 388 Z"/>
<path d="M 269 388 Z"/>
<path d="M 258 388 L 259 388 Z"/>
<path d="M 752 387 Z"/>
<path d="M 745 387 L 750 387 Z"/>
<path d="M 739 387 L 742 387 Z"/>
<path d="M 730 387 L 731 387 Z"/>
<path d="M 572 387 Z"/>
<path d="M 567 387 L 568 387 L 569 388 L 568 387 Z"/>
<path d="M 338 387 Z"/>
<path d="M 336 387 Z"/>
<path d="M 306 387 Z"/>
<path d="M 274 387 Z"/>
<path d="M 256 387 Z"/>
<path d="M 252 387 Z"/>
<path d="M 754 386 L 755 386 Z"/>
<path d="M 734 386 L 735 386 Z"/>
<path d="M 575 386 Z"/>
<path d="M 570 386 Z"/>
<path d="M 493 386 Z"/>
<path d="M 491 386 Z"/>
<path d="M 303 386 Z"/>
<path d="M 298 386 L 298 387 Z"/>
<path d="M 268 386 Z"/>
<path d="M 266 386 Z"/>
<path d="M 261 386 Z"/>
<path d="M 758 385 Z"/>
<path d="M 729 385 L 730 385 Z"/>
<path d="M 596 385 Z"/>
<path d="M 573 385 Z"/>
<path d="M 527 385 Z"/>
<path d="M 438 385 L 438 392 Z"/>
<path d="M 300 385 Z"/>
<path d="M 250 385 Z"/>
<path d="M 761 384 Z"/>
<path d="M 726 384 Z"/>
<path d="M 613 384 Z"/>
<path d="M 584 384 Z"/>
<path d="M 577 384 L 578 384 L 579 385 L 578 384 Z"/>
<path d="M 575 384 Z"/>
<path d="M 569 384 Z"/>
<path d="M 452 384 Z"/>
<path d="M 318 384 Z"/>
<path d="M 298 384 Z"/>
<path d="M 724 383 Z"/>
<path d="M 596 383 L 598 383 Z"/>
<path d="M 588 383 L 591 383 Z"/>
<path d="M 338 383 L 337 384 L 337 385 L 338 385 L 337 384 Z"/>
<path d="M 296 383 Z"/>
<path d="M 288 383 Z"/>
<path d="M 721 382 Z"/>
<path d="M 336 382 Z"/>
<path d="M 592 381 L 593 381 Z"/>
<path d="M 397 380 Z"/>
<path d="M 337 380 Z"/>
<path d="M 772 379 Z"/>
<path d="M 452 379 L 452 382 Z"/>
<path d="M 450 379 L 450 380 Z"/>
<path d="M 720 378 L 720 379 L 721 379 Z"/>
<path d="M 656 377 Z"/>
<path d="M 725 376 L 724 377 L 723 377 L 723 378 L 725 378 L 724 377 L 725 376 L 726 376 Z"/>
<path d="M 712 376 L 712 383 Z"/>
<path d="M 693 376 Z"/>
<path d="M 336 376 Z"/>
<path d="M 485 375 Z"/>
<path d="M 548 374 Z"/>
<path d="M 481 374 L 480 375 Z"/>
<path d="M 438 374 L 438 375 L 437 376 L 437 378 L 437 376 L 438 375 Z"/>
<path d="M 317 374 L 317 376 Z"/>
<path d="M 454 373 L 454 389 L 455 390 L 455 400 L 456 401 L 456 409 L 457 410 L 457 416 L 458 417 L 458 422 L 459 423 L 459 427 L 460 428 L 460 433 L 461 434 L 461 437 L 462 438 L 462 441 L 463 442 L 463 445 L 464 446 L 464 449 L 465 450 L 465 452 L 466 453 L 466 456 L 467 457 L 467 459 L 468 460 L 468 461 L 469 462 L 469 464 L 470 465 L 470 467 L 471 468 L 471 470 L 472 471 L 472 474 L 473 475 L 473 477 L 474 478 L 474 482 L 475 483 L 475 487 L 476 488 L 476 493 L 477 494 L 477 502 L 478 503 L 478 522 L 477 523 L 475 521 L 476 520 L 473 517 L 474 516 L 473 517 L 471 515 L 471 514 L 473 512 L 474 512 L 473 512 L 472 513 L 471 512 L 470 513 L 464 507 L 465 506 L 464 505 L 463 506 L 461 504 L 462 503 L 461 504 L 460 504 L 458 502 L 459 501 L 458 502 L 457 501 L 456 501 L 455 500 L 456 499 L 455 500 L 454 499 L 453 499 L 452 498 L 453 497 L 452 498 L 451 498 L 450 497 L 451 496 L 450 497 L 449 497 L 448 496 L 447 496 L 446 495 L 447 494 L 446 495 L 445 495 L 444 494 L 445 493 L 444 494 L 443 494 L 442 493 L 444 491 L 444 490 L 442 490 L 440 492 L 438 492 L 437 491 L 435 491 L 434 490 L 433 490 L 432 489 L 433 488 L 432 489 L 430 489 L 429 488 L 430 487 L 429 488 L 427 488 L 426 487 L 424 487 L 423 486 L 424 485 L 423 486 L 421 486 L 420 485 L 421 484 L 422 484 L 421 484 L 420 485 L 418 485 L 417 484 L 415 484 L 414 483 L 412 483 L 411 482 L 410 482 L 409 481 L 408 481 L 407 480 L 408 479 L 407 480 L 406 480 L 405 479 L 406 478 L 405 479 L 404 479 L 403 478 L 404 477 L 403 478 L 402 478 L 401 477 L 402 476 L 401 477 L 400 477 L 399 476 L 400 475 L 399 476 L 398 476 L 397 475 L 398 474 L 397 475 L 396 475 L 394 473 L 393 473 L 392 472 L 393 471 L 392 472 L 391 471 L 390 471 L 388 469 L 387 469 L 384 466 L 385 465 L 384 464 L 383 465 L 382 464 L 381 464 L 377 460 L 378 459 L 377 460 L 375 458 L 376 457 L 369 450 L 368 451 L 365 448 L 365 447 L 366 446 L 364 444 L 363 445 L 360 442 L 360 441 L 361 440 L 360 441 L 357 438 L 357 437 L 356 436 L 357 435 L 356 436 L 354 434 L 354 433 L 353 432 L 354 431 L 353 432 L 351 430 L 351 429 L 352 428 L 351 429 L 348 426 L 348 425 L 349 424 L 348 423 L 347 424 L 344 421 L 344 420 L 345 419 L 346 420 L 345 419 L 346 418 L 346 417 L 345 416 L 345 417 L 343 419 L 332 408 L 333 407 L 332 408 L 331 408 L 329 406 L 328 406 L 327 405 L 325 405 L 325 407 L 326 408 L 326 410 L 327 411 L 327 413 L 328 414 L 328 415 L 329 416 L 329 419 L 330 420 L 330 421 L 331 422 L 331 423 L 332 424 L 332 425 L 333 426 L 333 427 L 334 428 L 334 429 L 335 430 L 335 432 L 334 433 L 335 432 L 336 433 L 336 434 L 335 435 L 336 434 L 337 435 L 337 436 L 336 437 L 337 436 L 339 438 L 339 439 L 340 440 L 340 441 L 341 442 L 341 443 L 342 444 L 342 445 L 343 446 L 343 447 L 342 448 L 343 447 L 344 448 L 344 449 L 343 450 L 344 449 L 346 451 L 346 452 L 347 453 L 347 454 L 349 456 L 349 457 L 348 458 L 349 457 L 351 459 L 351 460 L 350 461 L 349 460 L 348 461 L 349 460 L 350 461 L 351 460 L 353 462 L 353 463 L 352 464 L 353 463 L 357 467 L 357 468 L 356 469 L 357 470 L 358 469 L 362 473 L 362 474 L 363 475 L 362 476 L 363 477 L 362 478 L 363 477 L 366 480 L 365 481 L 366 480 L 369 483 L 368 484 L 368 485 L 369 485 L 370 486 L 369 487 L 365 487 L 367 487 L 368 488 L 367 489 L 353 489 L 352 490 L 346 490 L 345 491 L 341 491 L 340 492 L 336 492 L 335 491 L 334 491 L 335 491 L 336 492 L 335 493 L 332 493 L 331 494 L 327 494 L 325 492 L 324 492 L 325 492 L 327 494 L 326 495 L 325 495 L 324 496 L 322 496 L 321 497 L 319 497 L 318 498 L 316 498 L 315 497 L 316 498 L 315 499 L 314 499 L 313 500 L 312 500 L 311 501 L 310 501 L 309 502 L 307 502 L 306 501 L 307 502 L 306 503 L 305 503 L 304 502 L 305 503 L 304 504 L 303 504 L 302 505 L 301 505 L 300 506 L 299 506 L 298 507 L 297 507 L 296 506 L 297 507 L 296 508 L 295 508 L 294 507 L 295 508 L 294 509 L 293 509 L 292 508 L 293 509 L 292 510 L 291 510 L 289 512 L 288 512 L 287 513 L 285 513 L 284 512 L 285 513 L 284 514 L 283 514 L 282 515 L 281 515 L 280 516 L 279 516 L 278 517 L 276 517 L 276 518 L 277 519 L 277 520 L 276 521 L 275 520 L 274 521 L 275 520 L 276 521 L 277 520 L 279 522 L 277 524 L 279 522 L 280 523 L 281 523 L 283 525 L 285 525 L 286 526 L 286 530 L 285 531 L 285 534 L 284 535 L 284 545 L 285 544 L 286 544 L 287 545 L 286 544 L 290 540 L 291 540 L 292 541 L 293 540 L 292 539 L 301 530 L 302 531 L 301 530 L 302 529 L 302 528 L 307 523 L 308 524 L 309 523 L 310 524 L 309 523 L 311 521 L 310 520 L 314 516 L 315 516 L 316 517 L 315 516 L 316 515 L 317 515 L 318 514 L 320 514 L 321 513 L 324 513 L 325 514 L 326 514 L 325 514 L 324 513 L 325 512 L 327 512 L 328 511 L 332 511 L 333 510 L 337 510 L 338 509 L 343 509 L 344 510 L 343 509 L 344 508 L 349 508 L 350 507 L 355 507 L 356 506 L 391 506 L 392 507 L 398 507 L 399 508 L 403 508 L 404 509 L 408 509 L 409 510 L 411 510 L 412 511 L 411 512 L 412 511 L 415 511 L 416 512 L 415 513 L 416 512 L 418 512 L 419 513 L 418 514 L 419 513 L 421 513 L 422 514 L 421 515 L 422 514 L 423 514 L 424 515 L 423 516 L 424 515 L 426 515 L 427 516 L 428 516 L 429 517 L 430 517 L 431 518 L 432 518 L 433 519 L 434 519 L 435 520 L 434 521 L 435 520 L 436 520 L 438 522 L 436 524 L 438 522 L 439 522 L 441 524 L 440 525 L 441 524 L 442 525 L 443 525 L 447 529 L 446 530 L 448 532 L 449 531 L 454 536 L 454 537 L 452 539 L 453 540 L 453 541 L 453 540 L 452 539 L 454 537 L 456 539 L 456 540 L 455 541 L 456 540 L 458 542 L 458 543 L 457 544 L 458 543 L 459 544 L 459 545 L 458 546 L 459 545 L 460 546 L 460 547 L 458 549 L 460 547 L 461 548 L 461 549 L 460 550 L 461 549 L 462 550 L 462 551 L 461 552 L 462 551 L 463 552 L 463 553 L 464 554 L 464 557 L 463 558 L 464 557 L 465 558 L 465 560 L 466 561 L 466 565 L 467 566 L 467 571 L 468 572 L 468 579 L 469 580 L 469 672 L 468 673 L 468 674 L 467 675 L 248 675 L 247 676 L 248 675 L 250 677 L 250 678 L 249 679 L 250 678 L 252 680 L 252 681 L 251 682 L 250 681 L 251 682 L 250 683 L 252 681 L 255 684 L 255 685 L 257 687 L 257 688 L 262 693 L 262 694 L 263 694 L 264 695 L 462 695 L 463 696 L 463 697 L 462 698 L 461 697 L 263 697 L 457 697 L 458 698 L 458 699 L 457 700 L 456 699 L 456 700 L 457 700 L 459 702 L 459 703 L 456 706 L 455 705 L 448 712 L 449 713 L 446 716 L 444 714 L 445 715 L 442 718 L 443 719 L 439 723 L 438 723 L 435 726 L 434 725 L 435 726 L 432 729 L 431 729 L 430 728 L 429 729 L 430 730 L 427 733 L 426 733 L 425 732 L 426 733 L 423 736 L 422 736 L 420 734 L 422 736 L 419 739 L 418 739 L 417 738 L 418 737 L 417 736 L 418 737 L 417 738 L 418 739 L 415 742 L 414 742 L 412 744 L 411 744 L 407 748 L 406 748 L 404 746 L 406 748 L 418 748 L 419 747 L 425 747 L 426 746 L 430 746 L 431 745 L 433 745 L 434 744 L 436 744 L 437 743 L 439 743 L 440 742 L 442 742 L 443 743 L 442 742 L 443 741 L 444 741 L 445 740 L 446 740 L 447 741 L 448 741 L 447 741 L 446 740 L 447 739 L 448 739 L 449 738 L 450 738 L 451 737 L 452 737 L 453 736 L 454 736 L 455 737 L 454 736 L 456 734 L 457 734 L 458 733 L 459 733 L 460 734 L 461 733 L 460 732 L 462 730 L 463 730 L 464 731 L 465 730 L 464 729 L 467 726 L 468 726 L 469 725 L 470 726 L 471 725 L 470 724 L 477 717 L 478 718 L 479 717 L 480 717 L 479 717 L 478 716 L 478 715 L 479 714 L 480 714 L 482 716 L 482 717 L 483 718 L 483 721 L 484 722 L 484 734 L 483 735 L 483 739 L 482 740 L 482 743 L 481 744 L 481 746 L 480 747 L 480 748 L 479 749 L 479 751 L 478 752 L 478 753 L 477 754 L 477 755 L 476 756 L 475 755 L 476 756 L 476 757 L 475 758 L 474 757 L 475 758 L 475 759 L 474 760 L 473 759 L 474 760 L 474 761 L 473 762 L 473 763 L 472 764 L 471 763 L 472 764 L 472 765 L 471 766 L 471 768 L 472 767 L 473 767 L 474 766 L 476 766 L 477 765 L 478 765 L 479 766 L 480 766 L 479 766 L 478 765 L 479 764 L 480 764 L 482 762 L 483 762 L 485 760 L 486 760 L 490 756 L 491 756 L 492 755 L 493 756 L 492 755 L 495 752 L 496 753 L 495 752 L 496 751 L 496 750 L 499 747 L 500 748 L 499 747 L 499 746 L 500 745 L 500 744 L 501 743 L 501 742 L 503 740 L 504 741 L 503 740 L 503 739 L 504 738 L 504 737 L 505 736 L 506 737 L 505 736 L 505 734 L 506 733 L 506 731 L 507 730 L 507 727 L 508 726 L 508 719 L 509 718 L 509 617 L 510 616 L 510 595 L 511 594 L 511 585 L 512 584 L 512 578 L 513 577 L 513 571 L 514 570 L 514 567 L 515 566 L 515 563 L 516 562 L 516 558 L 517 557 L 517 556 L 518 555 L 519 556 L 518 555 L 518 553 L 519 552 L 519 550 L 520 549 L 520 548 L 521 547 L 521 546 L 522 545 L 524 547 L 524 549 L 525 550 L 524 549 L 524 547 L 525 546 L 524 547 L 522 545 L 522 544 L 523 543 L 524 544 L 523 543 L 523 542 L 524 541 L 524 540 L 525 539 L 526 540 L 525 539 L 525 538 L 526 537 L 526 536 L 527 535 L 528 536 L 529 535 L 528 534 L 528 533 L 529 532 L 531 534 L 532 533 L 532 532 L 532 533 L 531 534 L 529 532 L 529 531 L 531 529 L 532 530 L 531 529 L 531 528 L 533 526 L 535 528 L 533 526 L 533 525 L 535 523 L 535 522 L 536 521 L 536 520 L 538 518 L 539 519 L 540 518 L 539 517 L 539 516 L 541 514 L 541 513 L 543 511 L 544 512 L 543 511 L 543 510 L 545 508 L 546 509 L 545 508 L 545 507 L 547 505 L 548 506 L 547 505 L 547 504 L 549 502 L 550 503 L 549 502 L 549 501 L 552 498 L 553 499 L 552 498 L 552 497 L 554 495 L 555 496 L 554 495 L 554 494 L 555 493 L 555 492 L 557 490 L 557 489 L 559 487 L 560 488 L 559 487 L 559 486 L 560 485 L 560 484 L 562 482 L 563 483 L 562 482 L 562 481 L 563 480 L 563 479 L 564 478 L 564 477 L 566 475 L 567 476 L 566 475 L 566 474 L 567 473 L 567 472 L 569 470 L 570 471 L 569 470 L 569 469 L 570 468 L 571 469 L 570 468 L 570 467 L 571 466 L 572 467 L 571 466 L 571 464 L 569 464 L 568 463 L 567 463 L 566 464 L 567 465 L 565 467 L 564 467 L 563 468 L 562 468 L 561 469 L 560 469 L 559 468 L 560 469 L 558 471 L 557 471 L 554 474 L 553 474 L 552 473 L 553 472 L 552 473 L 553 474 L 538 489 L 537 488 L 536 489 L 537 490 L 536 491 L 536 492 L 533 495 L 532 494 L 533 495 L 533 496 L 531 498 L 530 497 L 529 498 L 530 499 L 530 500 L 528 502 L 527 501 L 528 502 L 528 503 L 526 505 L 525 504 L 524 505 L 525 504 L 526 505 L 526 506 L 524 508 L 523 507 L 524 508 L 524 509 L 522 511 L 521 510 L 522 511 L 522 512 L 520 514 L 519 513 L 520 514 L 520 515 L 519 516 L 518 515 L 519 516 L 519 517 L 518 518 L 518 519 L 516 521 L 515 520 L 516 521 L 516 522 L 515 523 L 514 522 L 513 523 L 514 522 L 515 523 L 515 524 L 514 525 L 514 526 L 513 527 L 513 528 L 512 529 L 511 528 L 511 527 L 511 528 L 512 529 L 511 530 L 510 530 L 510 533 L 508 535 L 507 534 L 507 533 L 508 532 L 508 520 L 509 519 L 509 511 L 510 510 L 510 506 L 511 505 L 511 502 L 512 501 L 512 499 L 513 498 L 513 496 L 514 495 L 514 493 L 515 492 L 515 490 L 516 489 L 516 488 L 517 487 L 517 486 L 518 485 L 518 484 L 519 483 L 520 484 L 519 483 L 519 482 L 520 481 L 521 482 L 520 481 L 520 480 L 522 478 L 523 479 L 522 478 L 522 477 L 524 475 L 525 476 L 524 475 L 524 474 L 525 473 L 525 472 L 528 469 L 529 470 L 531 468 L 532 469 L 531 468 L 530 469 L 529 468 L 529 467 L 535 461 L 536 462 L 538 460 L 537 459 L 540 456 L 541 456 L 542 455 L 543 456 L 542 455 L 544 453 L 545 453 L 546 454 L 545 453 L 547 451 L 548 451 L 549 452 L 548 451 L 550 449 L 551 449 L 552 450 L 551 449 L 553 447 L 554 447 L 555 448 L 554 449 L 555 448 L 554 447 L 556 445 L 557 445 L 558 446 L 557 445 L 559 443 L 560 443 L 562 445 L 560 443 L 564 439 L 565 439 L 566 440 L 564 442 L 566 440 L 565 439 L 577 427 L 579 429 L 579 430 L 579 429 L 577 427 L 577 426 L 579 424 L 580 425 L 581 424 L 580 425 L 579 424 L 579 423 L 582 420 L 583 421 L 582 420 L 582 419 L 583 418 L 583 417 L 584 416 L 584 415 L 586 413 L 587 414 L 586 413 L 586 412 L 587 411 L 588 412 L 587 411 L 587 409 L 588 408 L 588 407 L 589 406 L 589 404 L 590 403 L 590 401 L 591 400 L 591 398 L 592 397 L 592 395 L 593 394 L 593 390 L 594 389 L 594 385 L 587 385 L 586 386 L 581 386 L 580 387 L 577 387 L 576 388 L 574 388 L 573 389 L 571 389 L 570 390 L 568 390 L 567 389 L 568 390 L 566 392 L 564 392 L 563 391 L 564 392 L 563 393 L 562 393 L 561 394 L 560 394 L 559 393 L 559 392 L 559 393 L 560 394 L 558 396 L 557 396 L 556 397 L 555 397 L 554 396 L 553 397 L 554 398 L 542 410 L 541 409 L 540 410 L 541 411 L 540 412 L 540 413 L 538 415 L 537 414 L 536 415 L 537 414 L 538 415 L 538 416 L 536 418 L 536 419 L 534 421 L 533 420 L 534 421 L 534 422 L 533 423 L 532 422 L 533 423 L 533 424 L 531 426 L 530 425 L 531 426 L 531 427 L 530 428 L 530 429 L 529 430 L 529 431 L 527 433 L 526 432 L 527 433 L 527 434 L 526 435 L 525 434 L 526 435 L 526 436 L 525 437 L 524 436 L 525 437 L 525 438 L 524 439 L 522 437 L 524 439 L 524 440 L 523 441 L 522 440 L 523 441 L 523 442 L 522 443 L 521 442 L 522 443 L 522 444 L 521 445 L 520 444 L 521 445 L 521 446 L 520 447 L 519 446 L 520 447 L 520 448 L 519 449 L 518 448 L 519 449 L 519 450 L 518 451 L 517 450 L 518 451 L 518 452 L 517 453 L 517 454 L 515 456 L 515 457 L 514 458 L 513 457 L 514 458 L 514 459 L 513 460 L 512 459 L 513 460 L 513 461 L 512 462 L 511 461 L 512 462 L 512 463 L 511 464 L 510 463 L 509 464 L 510 463 L 511 464 L 511 465 L 509 467 L 508 466 L 509 467 L 509 468 L 508 469 L 507 468 L 506 469 L 505 469 L 504 468 L 504 467 L 505 466 L 504 467 L 503 466 L 503 465 L 504 464 L 503 465 L 502 464 L 502 463 L 501 462 L 501 461 L 500 460 L 500 459 L 501 458 L 500 459 L 499 458 L 499 457 L 501 455 L 499 457 L 497 455 L 497 454 L 495 452 L 495 451 L 496 450 L 495 451 L 494 450 L 494 449 L 493 448 L 494 447 L 493 448 L 491 446 L 491 445 L 492 444 L 493 445 L 492 444 L 491 445 L 489 443 L 489 441 L 488 440 L 488 439 L 487 438 L 487 437 L 488 436 L 487 437 L 486 436 L 486 435 L 485 434 L 485 432 L 486 431 L 486 430 L 486 431 L 485 432 L 484 431 L 484 429 L 485 428 L 484 429 L 483 428 L 483 426 L 484 425 L 483 426 L 482 425 L 482 423 L 481 422 L 481 419 L 482 418 L 482 417 L 482 418 L 481 419 L 480 418 L 480 416 L 481 415 L 480 416 L 479 415 L 479 413 L 478 412 L 478 409 L 479 408 L 478 409 L 477 408 L 477 407 L 476 406 L 476 404 L 475 403 L 475 401 L 476 400 L 475 401 L 474 400 L 474 399 L 473 398 L 473 397 L 472 396 L 472 395 L 471 394 L 471 393 L 470 392 L 470 391 L 468 389 L 468 388 L 469 387 L 468 388 L 466 386 L 466 385 L 465 384 L 465 383 L 466 382 L 465 383 L 460 378 L 460 377 L 461 376 L 462 377 L 460 375 L 461 376 L 460 377 L 459 377 L 458 376 L 458 375 L 457 375 L 455 373 Z"/>
<path d="M 395 373 Z"/>
<path d="M 372 373 Z"/>
<path d="M 280 373 Z"/>
<path d="M 702 372 Z"/>
<path d="M 548 372 Z"/>
<path d="M 452 372 L 452 374 Z"/>
<path d="M 436 372 Z"/>
<path d="M 698 371 Z"/>
<path d="M 550 371 L 550 372 Z"/>
<path d="M 483 371 L 484 371 Z"/>
<path d="M 480 371 L 481 372 Z"/>
<path d="M 448 371 Z"/>
<path d="M 392 371 L 393 372 L 393 373 L 393 372 L 394 371 L 393 372 Z"/>
<path d="M 335 371 L 335 372 Z"/>
<path d="M 280 371 Z"/>
<path d="M 711 370 Z"/>
<path d="M 708 370 L 709 371 L 708 372 L 707 372 L 706 373 L 704 373 L 703 374 L 701 374 L 700 375 L 698 375 L 697 374 L 698 375 L 697 376 L 696 376 L 694 378 L 693 378 L 692 379 L 691 379 L 690 378 L 691 379 L 689 381 L 688 381 L 685 384 L 684 384 L 683 385 L 682 384 L 678 388 L 679 389 L 677 391 L 677 392 L 675 394 L 674 393 L 675 394 L 675 395 L 673 397 L 672 396 L 673 397 L 673 398 L 672 399 L 671 398 L 672 399 L 672 400 L 671 401 L 670 400 L 671 401 L 671 402 L 670 403 L 669 402 L 670 403 L 670 405 L 669 406 L 669 407 L 668 408 L 667 407 L 668 408 L 668 410 L 667 411 L 667 414 L 666 415 L 666 419 L 665 420 L 665 437 L 668 437 L 669 436 L 671 436 L 672 435 L 674 435 L 675 436 L 674 435 L 675 434 L 676 434 L 677 433 L 678 433 L 679 432 L 680 432 L 681 431 L 682 431 L 683 432 L 682 431 L 684 429 L 685 429 L 686 428 L 687 428 L 688 429 L 689 428 L 688 427 L 698 417 L 700 419 L 699 418 L 700 417 L 699 418 L 698 417 L 698 416 L 701 413 L 702 414 L 701 413 L 701 412 L 702 411 L 702 410 L 704 408 L 705 409 L 704 408 L 704 407 L 705 406 L 706 407 L 705 406 L 705 404 L 706 403 L 706 402 L 707 401 L 708 402 L 707 401 L 707 399 L 708 398 L 708 395 L 709 394 L 709 390 L 710 389 L 710 372 Z"/>
<path d="M 702 370 Z"/>
<path d="M 619 370 Z"/>
<path d="M 561 370 Z"/>
<path d="M 499 370 Z"/>
<path d="M 437 370 Z"/>
<path d="M 696 369 Z"/>
<path d="M 450 369 L 451 369 L 452 370 L 453 370 L 453 369 L 452 370 L 451 369 Z"/>
<path d="M 435 369 Z"/>
<path d="M 393 369 Z"/>
<path d="M 316 369 Z"/>
<path d="M 780 368 Z"/>
<path d="M 659 367 L 659 368 Z"/>
<path d="M 476 367 Z"/>
<path d="M 278 367 Z"/>
<path d="M 661 366 Z"/>
<path d="M 436 366 Z"/>
<path d="M 434 366 Z"/>
<path d="M 332 366 Z"/>
<path d="M 317 366 Z"/>
<path d="M 274 366 L 276 366 Z"/>
<path d="M 532 365 L 532 366 Z"/>
<path d="M 474 365 Z"/>
<path d="M 315 365 Z"/>
<path d="M 272 365 Z"/>
<path d="M 391 364 Z"/>
<path d="M 389 364 Z"/>
<path d="M 278 364 Z"/>
<path d="M 783 363 Z"/>
<path d="M 660 363 Z"/>
<path d="M 546 363 L 546 366 L 546 365 L 547 364 L 548 364 L 548 363 L 547 364 Z"/>
<path d="M 532 363 Z"/>
<path d="M 489 363 Z"/>
<path d="M 334 363 L 334 365 Z"/>
<path d="M 316 363 L 317 364 Z"/>
<path d="M 272 363 Z"/>
<path d="M 737 362 L 736 363 L 736 364 L 736 363 Z"/>
<path d="M 356 362 Z"/>
<path d="M 332 362 Z"/>
<path d="M 314 362 Z"/>
<path d="M 275 362 L 274 363 L 275 362 L 276 363 L 276 364 L 276 363 L 277 362 L 276 363 Z"/>
<path d="M 490 361 Z"/>
<path d="M 437 361 Z"/>
<path d="M 432 361 Z"/>
<path d="M 390 361 Z"/>
<path d="M 347 361 Z"/>
<path d="M 662 360 Z"/>
<path d="M 627 360 Z"/>
<path d="M 625 360 Z"/>
<path d="M 545 360 L 546 361 Z"/>
<path d="M 530 360 L 530 368 Z"/>
<path d="M 349 360 Z"/>
<path d="M 344 360 L 345 360 Z"/>
<path d="M 336 360 L 336 366 L 337 367 L 337 374 L 338 375 L 338 378 L 339 379 L 339 381 L 340 382 L 340 384 L 341 385 L 341 386 L 342 387 L 342 388 L 343 389 L 343 390 L 344 391 L 344 392 L 345 393 L 345 394 L 344 395 L 345 394 L 348 397 L 348 398 L 351 401 L 351 402 L 350 403 L 349 402 L 348 403 L 349 404 L 350 403 L 352 405 L 353 404 L 354 404 L 357 407 L 358 407 L 361 410 L 360 411 L 361 410 L 362 410 L 363 411 L 362 412 L 363 411 L 365 411 L 366 412 L 367 412 L 368 413 L 370 413 L 371 414 L 374 414 L 375 415 L 379 415 L 380 416 L 387 416 L 386 415 L 386 407 L 385 406 L 385 402 L 384 401 L 384 399 L 383 398 L 383 396 L 382 395 L 382 393 L 381 392 L 381 391 L 380 390 L 380 389 L 381 388 L 380 389 L 379 388 L 379 387 L 381 385 L 379 387 L 377 385 L 377 384 L 375 382 L 375 381 L 376 380 L 375 381 L 367 373 L 368 372 L 367 371 L 366 372 L 365 372 L 362 369 L 361 369 L 360 368 L 359 368 L 358 367 L 357 367 L 356 366 L 355 366 L 354 365 L 353 365 L 352 364 L 354 362 L 354 361 L 353 360 L 353 361 L 354 362 L 352 364 L 350 364 L 349 363 L 350 362 L 349 363 L 346 363 L 345 362 L 342 362 L 341 361 L 338 361 L 337 360 Z"/>
<path d="M 276 360 Z"/>
<path d="M 517 359 Z"/>
<path d="M 342 359 Z"/>
<path d="M 339 359 L 340 359 Z"/>
<path d="M 334 359 Z"/>
<path d="M 788 358 L 789 358 Z"/>
<path d="M 519 358 Z"/>
<path d="M 275 358 Z"/>
<path d="M 273 358 Z"/>
<path d="M 791 357 Z"/>
<path d="M 389 357 L 389 358 Z"/>
<path d="M 337 357 Z"/>
<path d="M 533 356 L 532 357 Z"/>
<path d="M 492 356 Z"/>
<path d="M 465 356 L 465 357 Z"/>
<path d="M 788 355 L 787 356 L 789 356 Z"/>
<path d="M 522 355 Z"/>
<path d="M 274 355 Z"/>
<path d="M 745 354 L 746 355 Z"/>
<path d="M 528 354 L 527 355 L 526 355 L 527 355 L 528 356 L 527 357 L 525 357 L 524 358 L 523 358 L 522 359 L 521 359 L 520 360 L 519 360 L 518 361 L 517 361 L 516 362 L 515 362 L 513 360 L 515 362 L 512 365 L 511 365 L 510 364 L 511 365 L 508 368 L 507 368 L 506 369 L 505 368 L 502 371 L 501 370 L 502 371 L 500 373 L 501 372 L 502 373 L 502 374 L 500 376 L 499 375 L 498 376 L 499 377 L 499 378 L 498 379 L 497 378 L 498 379 L 498 380 L 497 381 L 496 380 L 497 381 L 497 382 L 496 383 L 496 384 L 495 385 L 494 384 L 495 385 L 495 387 L 494 388 L 494 390 L 493 391 L 493 395 L 492 396 L 492 409 L 493 410 L 493 415 L 494 416 L 494 417 L 495 417 L 496 418 L 495 419 L 493 419 L 496 419 L 497 418 L 496 418 L 495 417 L 496 416 L 497 416 L 498 415 L 499 415 L 500 416 L 499 415 L 501 413 L 502 413 L 504 411 L 505 411 L 507 409 L 508 409 L 509 408 L 510 409 L 511 408 L 510 407 L 517 400 L 518 401 L 517 400 L 517 399 L 520 396 L 521 397 L 522 396 L 523 397 L 522 396 L 521 397 L 520 396 L 520 395 L 522 393 L 523 394 L 522 393 L 522 392 L 523 391 L 523 390 L 524 389 L 524 387 L 525 386 L 525 384 L 526 383 L 526 381 L 527 380 L 528 381 L 527 380 L 527 376 L 528 375 L 529 376 L 529 377 L 529 376 L 528 375 L 528 355 L 529 354 Z"/>
<path d="M 524 354 Z"/>
<path d="M 786 353 L 785 354 Z"/>
<path d="M 782 353 Z"/>
<path d="M 765 353 L 764 354 L 758 354 L 757 355 L 754 355 L 753 356 L 752 356 L 751 357 L 750 357 L 749 358 L 748 358 L 747 359 L 746 359 L 745 360 L 744 360 L 743 359 L 744 360 L 742 362 L 741 362 L 740 361 L 739 362 L 740 363 L 731 372 L 730 371 L 729 372 L 728 371 L 730 373 L 729 374 L 729 375 L 728 376 L 728 377 L 727 378 L 727 379 L 725 381 L 724 380 L 726 382 L 728 382 L 729 383 L 731 383 L 732 384 L 737 384 L 738 385 L 752 385 L 753 384 L 756 384 L 757 383 L 759 383 L 760 382 L 761 382 L 762 381 L 763 381 L 764 380 L 765 380 L 766 381 L 765 380 L 767 378 L 768 378 L 769 379 L 768 380 L 769 379 L 770 380 L 768 378 L 778 368 L 778 367 L 780 365 L 780 364 L 781 363 L 781 362 L 782 361 L 782 360 L 783 359 L 783 358 L 785 356 L 784 356 L 783 355 L 780 355 L 779 354 L 773 354 L 772 353 Z"/>
<path d="M 752 353 Z"/>
<path d="M 466 353 Z"/>
<path d="M 761 352 Z"/>
<path d="M 582 352 Z"/>
<path d="M 528 352 Z"/>
<path d="M 495 352 Z"/>
<path d="M 771 351 Z"/>
<path d="M 388 351 L 388 352 Z"/>
<path d="M 311 351 Z"/>
<path d="M 273 351 L 273 352 Z"/>
<path d="M 884 350 Z"/>
<path d="M 308 350 Z"/>
<path d="M 494 349 Z"/>
<path d="M 646 348 Z"/>
<path d="M 680 347 Z"/>
<path d="M 678 347 Z"/>
<path d="M 644 347 Z"/>
<path d="M 546 347 L 547 348 L 547 356 L 547 348 Z"/>
<path d="M 463 347 Z"/>
<path d="M 272 347 Z"/>
<path d="M 663 346 Z"/>
<path d="M 661 346 L 661 352 Z"/>
<path d="M 652 346 L 653 347 L 652 348 L 650 348 L 649 349 L 648 349 L 647 350 L 645 350 L 644 349 L 645 350 L 644 351 L 643 351 L 642 352 L 641 352 L 639 354 L 638 354 L 637 353 L 638 354 L 636 356 L 635 356 L 634 357 L 632 355 L 634 357 L 627 364 L 625 362 L 624 363 L 625 364 L 624 365 L 625 366 L 625 367 L 623 369 L 622 368 L 623 369 L 623 370 L 622 371 L 622 372 L 620 374 L 619 373 L 620 374 L 620 375 L 619 376 L 618 375 L 619 376 L 619 377 L 618 378 L 618 379 L 617 380 L 616 379 L 617 380 L 617 382 L 616 383 L 615 382 L 616 383 L 616 386 L 615 387 L 614 386 L 615 387 L 615 391 L 614 392 L 614 408 L 615 407 L 619 407 L 620 408 L 619 407 L 620 406 L 622 406 L 623 405 L 625 405 L 626 404 L 628 404 L 629 405 L 628 404 L 629 403 L 630 403 L 631 404 L 630 403 L 631 402 L 632 402 L 633 403 L 632 402 L 634 400 L 635 400 L 637 398 L 638 398 L 639 399 L 638 398 L 642 394 L 643 394 L 643 393 L 649 387 L 650 388 L 649 387 L 649 386 L 651 384 L 652 385 L 651 384 L 651 383 L 652 382 L 652 381 L 653 380 L 653 379 L 654 378 L 654 376 L 655 375 L 655 374 L 656 373 L 656 371 L 657 370 L 657 366 L 658 365 L 658 362 L 659 361 L 659 346 L 658 346 L 657 347 L 653 347 Z"/>
<path d="M 646 346 Z"/>
<path d="M 655 345 Z"/>
<path d="M 689 344 L 691 344 Z"/>
<path d="M 658 344 L 660 344 Z"/>
<path d="M 584 344 Z"/>
<path d="M 545 344 L 546 345 L 546 344 Z"/>
<path d="M 385 344 L 386 345 L 386 349 L 386 345 Z"/>
<path d="M 694 343 Z"/>
<path d="M 697 342 Z"/>
<path d="M 676 342 L 676 344 L 677 345 L 684 345 L 677 345 L 676 344 Z"/>
<path d="M 627 342 L 628 343 L 628 342 Z"/>
<path d="M 375 342 L 375 343 Z"/>
<path d="M 371 342 L 371 343 L 372 343 Z"/>
<path d="M 364 342 Z"/>
<path d="M 711 341 Z"/>
<path d="M 700 341 L 701 342 L 702 342 L 701 342 Z"/>
<path d="M 625 341 Z"/>
<path d="M 361 341 Z"/>
<path d="M 706 340 Z"/>
<path d="M 547 340 L 548 341 L 548 342 L 548 341 Z"/>
<path d="M 495 340 L 495 343 Z"/>
<path d="M 459 340 L 459 341 L 460 342 L 460 343 L 460 342 L 461 341 L 460 342 L 459 341 Z"/>
<path d="M 372 340 L 373 340 Z"/>
<path d="M 271 340 L 271 341 Z"/>
<path d="M 710 339 Z"/>
<path d="M 708 339 Z"/>
<path d="M 672 339 Z"/>
<path d="M 586 339 Z"/>
<path d="M 367 339 L 368 340 L 367 341 L 368 340 Z"/>
<path d="M 363 339 Z"/>
<path d="M 627 338 L 627 339 L 628 339 Z"/>
<path d="M 370 338 L 372 338 Z"/>
<path d="M 299 338 Z"/>
<path d="M 632 337 Z"/>
<path d="M 625 337 Z"/>
<path d="M 549 337 Z"/>
<path d="M 547 337 L 547 338 Z"/>
<path d="M 460 337 Z"/>
<path d="M 365 337 L 366 337 Z"/>
<path d="M 301 337 Z"/>
<path d="M 674 336 L 675 337 L 675 338 L 675 337 Z"/>
<path d="M 545 336 Z"/>
<path d="M 361 336 Z"/>
<path d="M 624 335 Z"/>
<path d="M 374 335 L 374 336 Z"/>
<path d="M 676 334 L 677 335 L 677 334 Z"/>
<path d="M 637 334 Z"/>
<path d="M 587 334 L 587 335 Z"/>
<path d="M 548 334 L 548 335 Z"/>
<path d="M 458 334 L 458 335 Z"/>
<path d="M 408 334 Z"/>
<path d="M 388 334 L 388 335 Z"/>
<path d="M 354 334 Z"/>
<path d="M 351 333 L 350 334 L 348 334 L 350 334 Z"/>
<path d="M 349 332 Z"/>
<path d="M 269 332 L 270 333 L 269 334 L 270 333 L 270 332 Z"/>
<path d="M 625 331 L 625 332 Z"/>
<path d="M 495 331 L 495 332 Z"/>
<path d="M 347 331 Z"/>
<path d="M 273 331 L 272 332 L 273 333 L 272 334 L 272 335 L 273 336 L 273 345 L 274 346 L 274 349 L 275 350 L 275 353 L 276 354 L 276 356 L 277 357 L 277 358 L 278 359 L 278 360 L 279 361 L 279 362 L 280 363 L 280 365 L 282 367 L 282 368 L 285 371 L 285 372 L 284 373 L 283 372 L 282 373 L 283 372 L 286 375 L 287 374 L 289 376 L 288 377 L 290 379 L 289 378 L 290 377 L 291 377 L 294 380 L 292 382 L 291 381 L 290 381 L 291 382 L 292 382 L 293 383 L 294 382 L 293 381 L 294 380 L 295 380 L 296 381 L 297 381 L 298 382 L 299 382 L 300 383 L 301 383 L 302 384 L 304 384 L 305 385 L 307 385 L 308 386 L 311 386 L 312 387 L 316 387 L 316 385 L 315 384 L 316 383 L 316 382 L 315 381 L 315 371 L 314 370 L 314 367 L 313 366 L 313 364 L 312 363 L 312 361 L 311 360 L 311 358 L 312 357 L 311 358 L 310 357 L 310 356 L 308 354 L 308 353 L 306 351 L 306 350 L 304 348 L 304 347 L 305 346 L 304 345 L 303 346 L 301 344 L 302 343 L 301 344 L 299 342 L 300 341 L 300 340 L 300 341 L 299 342 L 298 342 L 294 338 L 295 337 L 294 338 L 293 338 L 292 337 L 293 336 L 292 337 L 291 337 L 290 336 L 289 336 L 288 335 L 287 335 L 286 334 L 285 334 L 284 333 L 285 332 L 284 333 L 281 333 L 280 332 L 278 332 L 277 331 Z"/>
<path d="M 678 330 Z"/>
<path d="M 675 330 L 676 331 L 676 332 L 676 330 Z"/>
<path d="M 345 330 L 344 331 L 346 333 L 344 331 Z"/>
<path d="M 672 329 Z"/>
<path d="M 589 329 Z"/>
<path d="M 389 329 Z"/>
<path d="M 275 329 Z"/>
<path d="M 677 328 Z"/>
<path d="M 457 328 Z"/>
<path d="M 286 328 Z"/>
<path d="M 277 328 Z"/>
<path d="M 271 328 L 271 329 Z"/>
<path d="M 679 327 Z"/>
<path d="M 393 327 L 392 328 L 391 328 L 391 331 L 390 332 L 390 340 L 389 341 L 389 345 L 390 346 L 390 354 L 391 355 L 391 359 L 392 360 L 392 362 L 393 363 L 393 365 L 394 366 L 394 367 L 395 368 L 395 369 L 396 370 L 396 371 L 397 372 L 397 373 L 398 374 L 398 375 L 397 376 L 398 375 L 400 377 L 400 378 L 399 379 L 400 378 L 405 383 L 405 384 L 404 385 L 402 383 L 401 384 L 402 383 L 405 386 L 404 387 L 403 387 L 404 387 L 406 389 L 407 388 L 408 389 L 407 388 L 408 387 L 409 387 L 412 390 L 413 390 L 415 392 L 416 392 L 418 394 L 416 396 L 418 394 L 419 394 L 420 395 L 421 395 L 422 396 L 423 396 L 424 397 L 426 397 L 427 398 L 429 398 L 430 399 L 432 399 L 433 400 L 435 400 L 436 399 L 436 381 L 435 380 L 435 375 L 434 374 L 434 371 L 433 370 L 433 368 L 432 367 L 432 365 L 431 364 L 431 363 L 430 362 L 430 361 L 429 360 L 429 359 L 428 358 L 428 357 L 430 355 L 428 357 L 427 356 L 427 355 L 428 354 L 427 355 L 425 353 L 425 352 L 426 351 L 425 352 L 422 349 L 422 348 L 423 347 L 424 348 L 422 346 L 421 347 L 415 341 L 416 340 L 415 339 L 414 340 L 413 339 L 412 339 L 410 337 L 409 337 L 408 336 L 407 336 L 405 334 L 406 333 L 405 334 L 404 334 L 403 333 L 404 332 L 403 333 L 402 333 L 401 332 L 402 331 L 401 332 L 400 332 L 399 331 L 400 330 L 399 331 L 398 331 L 397 330 L 398 329 L 397 330 L 396 330 L 395 329 L 393 329 L 392 328 Z"/>
<path d="M 494 326 Z"/>
<path d="M 425 326 L 426 326 Z"/>
<path d="M 390 326 L 391 326 Z"/>
<path d="M 624 325 L 624 326 Z"/>
<path d="M 457 325 Z"/>
<path d="M 417 325 Z"/>
<path d="M 652 323 Z"/>
<path d="M 588 323 L 588 327 Z"/>
<path d="M 459 322 L 459 330 Z"/>
<path d="M 416 322 Z"/>
<path d="M 373 322 L 373 323 Z"/>
<path d="M 681 321 Z"/>
<path d="M 589 321 Z"/>
<path d="M 653 319 L 654 320 Z"/>
<path d="M 589 319 L 590 319 Z"/>
<path d="M 494 319 L 494 320 Z"/>
<path d="M 330 319 Z"/>
<path d="M 735 317 Z"/>
<path d="M 680 317 Z"/>
<path d="M 458 317 L 458 318 Z"/>
<path d="M 430 317 Z"/>
<path d="M 655 316 Z"/>
<path d="M 328 316 Z"/>
<path d="M 623 315 L 623 316 Z"/>
<path d="M 587 315 Z"/>
<path d="M 520 315 Z"/>
<path d="M 492 315 L 491 316 Z"/>
<path d="M 589 314 Z"/>
<path d="M 490 314 Z"/>
<path d="M 460 314 L 460 315 Z"/>
<path d="M 373 314 Z"/>
<path d="M 682 313 L 683 314 L 682 315 L 683 314 Z"/>
<path d="M 623 313 Z"/>
<path d="M 493 313 Z"/>
<path d="M 458 313 Z"/>
<path d="M 431 313 Z"/>
<path d="M 733 312 L 732 313 Z"/>
<path d="M 561 312 L 563 314 L 561 316 L 560 315 L 561 316 L 563 314 Z"/>
<path d="M 660 311 Z"/>
<path d="M 734 310 Z"/>
<path d="M 588 310 Z"/>
<path d="M 520 310 Z"/>
<path d="M 403 310 Z"/>
<path d="M 372 310 Z"/>
<path d="M 370 310 Z"/>
<path d="M 432 308 L 432 309 Z"/>
<path d="M 325 308 Z"/>
<path d="M 688 307 Z"/>
<path d="M 568 307 Z"/>
<path d="M 460 307 L 460 309 L 459 310 L 461 310 L 460 309 Z"/>
<path d="M 400 307 Z"/>
<path d="M 585 306 Z"/>
<path d="M 462 306 Z"/>
<path d="M 404 306 L 403 307 Z"/>
<path d="M 322 305 L 322 307 L 321 308 L 320 308 L 321 308 L 322 307 L 323 308 L 323 309 L 324 310 L 323 309 L 323 307 L 324 306 L 323 306 Z"/>
<path d="M 320 305 Z"/>
<path d="M 661 304 Z"/>
<path d="M 580 304 L 579 305 L 578 305 L 577 306 L 576 306 L 575 307 L 574 307 L 572 309 L 571 309 L 568 312 L 567 312 L 566 311 L 567 312 L 567 313 L 560 320 L 559 319 L 558 320 L 559 321 L 559 322 L 557 324 L 555 322 L 555 321 L 555 322 L 557 324 L 557 325 L 556 326 L 556 327 L 554 329 L 553 328 L 554 329 L 554 330 L 553 331 L 553 332 L 552 333 L 551 332 L 552 333 L 552 335 L 551 336 L 551 338 L 550 339 L 550 343 L 549 344 L 549 361 L 550 362 L 550 365 L 551 366 L 551 369 L 552 370 L 552 372 L 554 372 L 555 371 L 556 371 L 557 372 L 556 371 L 557 370 L 558 370 L 559 371 L 558 370 L 560 368 L 561 368 L 563 366 L 564 366 L 567 363 L 568 363 L 569 364 L 566 367 L 569 364 L 568 363 L 575 356 L 576 357 L 578 355 L 577 356 L 576 355 L 576 354 L 579 351 L 580 352 L 579 351 L 579 350 L 580 349 L 580 348 L 581 347 L 581 346 L 582 345 L 583 346 L 582 345 L 582 343 L 583 342 L 583 341 L 584 340 L 584 338 L 585 337 L 585 333 L 586 332 L 586 317 L 585 316 L 585 312 L 584 311 L 584 308 L 583 307 L 583 305 L 582 304 Z"/>
<path d="M 569 304 Z"/>
<path d="M 518 304 Z"/>
<path d="M 461 304 Z"/>
<path d="M 457 304 Z"/>
<path d="M 403 304 Z"/>
<path d="M 401 304 L 400 305 Z"/>
<path d="M 735 303 Z"/>
<path d="M 576 303 L 578 303 Z"/>
<path d="M 323 303 Z"/>
<path d="M 580 302 Z"/>
<path d="M 517 302 L 516 303 Z"/>
<path d="M 320 302 L 321 302 Z"/>
<path d="M 662 301 Z"/>
<path d="M 512 301 Z"/>
<path d="M 464 301 Z"/>
<path d="M 401 300 Z"/>
<path d="M 322 300 Z"/>
<path d="M 624 299 L 625 300 Z"/>
<path d="M 582 299 L 581 300 L 580 300 L 581 300 L 584 303 L 583 302 L 583 299 Z"/>
<path d="M 465 299 Z"/>
<path d="M 320 299 L 320 300 Z"/>
<path d="M 484 298 Z"/>
<path d="M 400 298 Z"/>
<path d="M 663 297 Z"/>
<path d="M 583 297 Z"/>
<path d="M 578 297 L 578 299 Z"/>
<path d="M 466 297 Z"/>
<path d="M 737 296 Z"/>
<path d="M 539 296 Z"/>
<path d="M 512 296 L 513 297 L 513 298 L 514 299 L 514 300 L 514 299 L 515 298 L 514 299 L 513 298 L 513 297 L 514 296 L 513 297 Z"/>
<path d="M 321 296 L 320 297 L 321 297 Z"/>
<path d="M 433 295 L 433 298 Z"/>
<path d="M 399 295 Z"/>
<path d="M 470 294 L 469 295 L 469 296 L 468 297 L 468 298 L 467 299 L 467 300 L 466 301 L 466 302 L 465 303 L 465 304 L 464 305 L 463 304 L 464 305 L 464 308 L 463 309 L 463 311 L 462 312 L 462 317 L 461 318 L 461 334 L 462 335 L 462 339 L 463 340 L 463 343 L 462 344 L 463 343 L 464 344 L 464 345 L 465 346 L 465 348 L 466 349 L 466 350 L 468 352 L 468 353 L 469 354 L 469 355 L 468 356 L 467 355 L 468 356 L 469 355 L 471 357 L 471 358 L 470 359 L 471 360 L 472 359 L 479 366 L 478 367 L 479 368 L 480 367 L 481 368 L 482 368 L 483 369 L 484 369 L 485 368 L 486 369 L 486 370 L 487 371 L 486 370 L 486 369 L 487 368 L 487 367 L 486 366 L 486 365 L 487 364 L 488 365 L 487 364 L 487 362 L 488 361 L 488 360 L 489 359 L 489 358 L 490 357 L 491 358 L 490 357 L 490 355 L 491 354 L 491 352 L 492 351 L 492 347 L 493 346 L 493 328 L 492 327 L 492 323 L 491 322 L 491 320 L 492 319 L 491 320 L 490 319 L 490 318 L 489 317 L 489 316 L 488 315 L 488 313 L 489 312 L 488 313 L 487 312 L 487 311 L 488 310 L 487 311 L 485 309 L 485 308 L 486 307 L 485 308 L 483 306 L 483 305 L 475 297 L 474 297 L 473 296 L 473 295 L 474 294 L 473 295 L 472 295 L 471 294 Z"/>
<path d="M 513 293 Z"/>
<path d="M 468 293 Z"/>
<path d="M 464 293 L 465 293 Z"/>
<path d="M 738 292 Z"/>
<path d="M 708 292 Z"/>
<path d="M 664 292 L 664 294 Z"/>
<path d="M 398 292 Z"/>
<path d="M 396 292 Z"/>
<path d="M 740 291 Z"/>
<path d="M 710 291 Z"/>
<path d="M 472 291 Z"/>
<path d="M 705 290 L 704 291 Z"/>
<path d="M 627 290 L 626 291 Z"/>
<path d="M 470 290 Z"/>
<path d="M 741 289 Z"/>
<path d="M 629 289 Z"/>
<path d="M 467 289 L 467 290 Z"/>
<path d="M 434 289 Z"/>
<path d="M 726 288 L 725 289 L 721 289 L 720 290 L 717 290 L 716 291 L 714 291 L 713 292 L 712 292 L 711 293 L 710 293 L 709 294 L 708 294 L 707 295 L 706 295 L 705 296 L 704 296 L 702 298 L 701 298 L 700 297 L 701 296 L 700 297 L 699 296 L 698 297 L 697 296 L 698 297 L 697 298 L 697 299 L 690 306 L 689 305 L 690 306 L 691 305 L 692 306 L 692 307 L 689 310 L 688 309 L 687 310 L 688 309 L 689 310 L 689 311 L 687 313 L 686 312 L 687 313 L 687 314 L 685 316 L 685 317 L 684 318 L 684 319 L 683 320 L 682 319 L 683 320 L 683 322 L 682 323 L 682 324 L 681 325 L 680 324 L 681 325 L 681 328 L 680 329 L 680 332 L 679 333 L 679 337 L 678 338 L 678 343 L 687 343 L 688 342 L 692 342 L 693 341 L 695 341 L 696 340 L 698 340 L 699 339 L 701 339 L 702 340 L 701 339 L 702 338 L 703 338 L 704 337 L 705 337 L 706 336 L 707 336 L 708 335 L 709 335 L 710 336 L 709 335 L 711 333 L 712 333 L 713 334 L 714 333 L 713 332 L 716 329 L 717 329 L 718 330 L 720 328 L 719 327 L 721 325 L 722 326 L 721 325 L 721 324 L 724 321 L 725 322 L 724 321 L 724 320 L 726 318 L 726 317 L 728 315 L 730 317 L 728 315 L 728 314 L 729 313 L 729 312 L 730 311 L 730 310 L 731 309 L 731 308 L 732 307 L 733 308 L 732 307 L 732 305 L 733 304 L 733 302 L 734 301 L 734 299 L 735 298 L 736 299 L 735 298 L 735 295 L 736 294 L 736 291 L 737 290 L 737 288 Z"/>
<path d="M 719 288 Z"/>
<path d="M 713 288 L 714 288 L 715 289 L 714 288 Z"/>
<path d="M 708 288 L 709 289 L 710 289 L 709 289 Z"/>
<path d="M 543 288 Z"/>
<path d="M 465 288 Z"/>
<path d="M 724 287 Z"/>
<path d="M 630 287 Z"/>
<path d="M 511 287 Z"/>
<path d="M 397 287 L 397 288 Z"/>
<path d="M 740 286 L 740 287 Z"/>
<path d="M 738 286 Z"/>
<path d="M 732 286 L 736 286 Z"/>
<path d="M 544 286 Z"/>
<path d="M 432 286 Z"/>
<path d="M 631 285 Z"/>
<path d="M 612 285 L 611 286 L 612 286 Z"/>
<path d="M 605 285 L 605 286 L 604 287 L 605 286 L 606 287 L 608 287 L 609 286 L 608 287 L 606 287 L 605 286 Z"/>
<path d="M 395 285 L 395 286 Z"/>
<path d="M 733 284 Z"/>
<path d="M 608 284 L 609 284 Z"/>
<path d="M 548 284 L 549 284 Z"/>
<path d="M 348 284 Z"/>
<path d="M 665 283 L 666 283 Z"/>
<path d="M 605 283 L 606 283 Z"/>
<path d="M 600 283 L 602 285 L 601 286 L 603 284 L 601 284 Z"/>
<path d="M 509 283 L 508 284 L 509 285 L 509 286 L 509 284 L 510 283 Z"/>
<path d="M 506 283 Z"/>
<path d="M 450 283 Z"/>
<path d="M 448 283 Z"/>
<path d="M 394 283 Z"/>
<path d="M 602 282 Z"/>
<path d="M 545 282 Z"/>
<path d="M 346 282 L 346 283 Z"/>
<path d="M 319 282 Z"/>
<path d="M 599 281 Z"/>
<path d="M 508 281 Z"/>
<path d="M 452 281 Z"/>
<path d="M 431 281 Z"/>
<path d="M 394 281 Z"/>
<path d="M 342 281 Z"/>
<path d="M 455 280 Z"/>
<path d="M 396 280 L 396 281 Z"/>
<path d="M 339 280 Z"/>
<path d="M 457 279 Z"/>
<path d="M 336 279 Z"/>
<path d="M 614 278 L 614 284 L 614 281 L 615 280 L 614 279 Z"/>
<path d="M 593 278 L 593 279 Z"/>
<path d="M 548 278 L 548 279 L 547 280 L 547 281 L 547 280 L 548 279 Z"/>
<path d="M 546 278 Z"/>
<path d="M 460 278 Z"/>
<path d="M 430 278 Z"/>
<path d="M 331 278 L 332 278 Z"/>
<path d="M 471 277 L 470 278 Z"/>
<path d="M 466 277 Z"/>
<path d="M 462 277 Z"/>
<path d="M 393 277 L 394 278 Z"/>
<path d="M 327 277 Z"/>
<path d="M 319 277 L 319 278 L 321 280 L 321 288 L 322 289 L 322 294 L 323 295 L 323 298 L 324 299 L 324 301 L 325 302 L 325 304 L 326 305 L 326 306 L 327 307 L 327 308 L 328 309 L 328 310 L 329 311 L 329 312 L 331 314 L 331 315 L 330 316 L 331 315 L 335 319 L 335 320 L 334 321 L 333 320 L 335 322 L 334 323 L 335 322 L 338 325 L 337 326 L 338 325 L 339 326 L 338 325 L 339 324 L 340 324 L 343 327 L 344 327 L 345 328 L 346 328 L 347 329 L 348 329 L 349 330 L 350 330 L 351 331 L 352 331 L 353 332 L 355 332 L 356 333 L 358 333 L 359 334 L 362 334 L 363 335 L 367 335 L 368 336 L 372 336 L 372 328 L 371 327 L 371 318 L 370 317 L 370 314 L 369 313 L 369 312 L 368 311 L 368 309 L 369 308 L 368 309 L 367 308 L 367 307 L 366 306 L 366 305 L 365 304 L 365 303 L 366 302 L 365 303 L 364 302 L 364 301 L 365 300 L 364 301 L 362 299 L 362 298 L 354 290 L 355 289 L 354 288 L 353 289 L 352 289 L 350 287 L 351 286 L 350 285 L 351 286 L 350 287 L 349 287 L 348 286 L 347 286 L 346 285 L 345 285 L 343 283 L 344 282 L 343 283 L 341 283 L 340 282 L 338 282 L 337 281 L 334 281 L 333 280 L 330 280 L 329 279 L 324 279 L 323 278 L 321 278 L 320 279 L 319 278 Z"/>
<path d="M 469 276 Z"/>
<path d="M 332 276 Z"/>
<path d="M 636 275 Z"/>
<path d="M 586 275 Z"/>
<path d="M 584 275 Z"/>
<path d="M 509 275 L 508 276 L 508 279 L 508 277 L 509 276 Z"/>
<path d="M 335 275 Z"/>
<path d="M 322 275 Z"/>
<path d="M 320 275 Z"/>
<path d="M 549 273 Z"/>
<path d="M 547 273 Z"/>
<path d="M 507 273 Z"/>
<path d="M 664 271 Z"/>
<path d="M 549 271 Z"/>
<path d="M 447 271 L 447 281 Z"/>
<path d="M 613 268 Z"/>
<path d="M 395 268 L 396 269 L 396 270 L 396 269 Z"/>
<path d="M 640 267 Z"/>
<path d="M 576 267 Z"/>
<path d="M 663 266 Z"/>
<path d="M 509 266 Z"/>
<path d="M 395 266 Z"/>
<path d="M 648 265 L 649 266 Z"/>
<path d="M 429 265 Z"/>
<path d="M 652 264 Z"/>
<path d="M 650 264 Z"/>
<path d="M 509 264 Z"/>
<path d="M 448 264 Z"/>
<path d="M 396 263 L 397 264 L 397 263 Z"/>
<path d="M 659 262 L 658 263 L 657 263 L 656 264 L 655 264 L 653 266 L 652 266 L 650 268 L 649 268 L 647 270 L 646 270 L 645 269 L 646 268 L 644 270 L 645 271 L 638 278 L 637 277 L 636 278 L 637 279 L 637 280 L 634 283 L 633 282 L 634 283 L 634 284 L 633 285 L 633 286 L 632 287 L 632 288 L 631 289 L 631 290 L 630 291 L 630 292 L 629 293 L 629 294 L 628 295 L 626 293 L 625 294 L 626 293 L 628 295 L 628 297 L 627 298 L 626 297 L 627 298 L 627 301 L 626 302 L 626 307 L 625 308 L 625 322 L 626 323 L 626 328 L 627 329 L 627 333 L 628 334 L 628 336 L 631 339 L 629 337 L 631 335 L 632 335 L 633 334 L 634 334 L 636 332 L 637 332 L 639 330 L 640 330 L 641 331 L 640 332 L 641 331 L 642 332 L 640 330 L 643 327 L 644 327 L 645 328 L 648 325 L 647 324 L 648 323 L 648 322 L 651 319 L 651 318 L 653 316 L 653 315 L 655 313 L 656 314 L 655 313 L 655 312 L 656 311 L 656 310 L 657 309 L 657 308 L 658 307 L 658 306 L 659 305 L 659 303 L 660 302 L 660 300 L 661 299 L 661 296 L 662 295 L 662 290 L 663 289 L 663 273 L 662 272 L 662 269 L 661 268 L 661 265 L 660 264 L 660 263 Z"/>
<path d="M 655 262 Z"/>
<path d="M 613 262 L 612 263 Z"/>
<path d="M 549 262 L 549 263 Z"/>
<path d="M 663 261 L 663 262 L 662 263 L 663 262 Z"/>
<path d="M 449 261 Z"/>
<path d="M 549 260 Z"/>
<path d="M 508 260 L 508 262 Z"/>
<path d="M 398 260 Z"/>
<path d="M 663 259 Z"/>
<path d="M 656 259 Z"/>
<path d="M 448 259 Z"/>
<path d="M 615 258 Z"/>
<path d="M 575 258 Z"/>
<path d="M 510 258 Z"/>
<path d="M 397 258 Z"/>
<path d="M 660 257 L 660 259 L 659 260 L 658 259 L 659 260 L 660 260 L 661 261 L 660 260 L 661 259 L 660 258 Z"/>
<path d="M 656 257 Z"/>
<path d="M 549 257 L 549 258 Z"/>
<path d="M 547 257 L 547 258 Z"/>
<path d="M 421 257 Z"/>
<path d="M 419 257 Z"/>
<path d="M 487 256 Z"/>
<path d="M 448 256 L 449 256 Z"/>
<path d="M 417 256 Z"/>
<path d="M 398 256 Z"/>
<path d="M 574 255 Z"/>
<path d="M 572 255 Z"/>
<path d="M 492 255 Z"/>
<path d="M 548 254 Z"/>
<path d="M 548 252 Z"/>
<path d="M 546 252 Z"/>
<path d="M 413 252 Z"/>
<path d="M 547 250 Z"/>
<path d="M 413 250 Z"/>
<path d="M 400 250 L 400 251 L 401 252 L 400 251 Z"/>
<path d="M 570 249 L 570 250 Z"/>
<path d="M 545 249 Z"/>
<path d="M 454 249 Z"/>
<path d="M 572 248 L 572 249 Z"/>
<path d="M 491 248 Z"/>
<path d="M 403 247 Z"/>
<path d="M 401 247 L 401 248 Z"/>
<path d="M 570 246 L 570 247 Z"/>
<path d="M 544 246 Z"/>
<path d="M 514 246 Z"/>
<path d="M 406 246 L 408 248 L 407 249 L 406 249 L 405 248 L 404 249 L 404 250 L 403 251 L 403 253 L 402 254 L 402 255 L 401 256 L 401 257 L 400 258 L 400 261 L 399 262 L 399 266 L 398 267 L 398 285 L 399 286 L 399 290 L 400 291 L 400 293 L 401 294 L 401 296 L 402 297 L 402 298 L 403 299 L 403 301 L 402 302 L 403 301 L 405 303 L 405 304 L 406 305 L 406 306 L 407 307 L 407 308 L 406 309 L 407 310 L 408 309 L 411 312 L 411 313 L 410 314 L 408 312 L 409 313 L 408 314 L 409 315 L 409 316 L 408 317 L 409 316 L 409 315 L 410 314 L 413 317 L 412 318 L 413 317 L 415 319 L 414 318 L 415 317 L 416 317 L 417 318 L 417 319 L 418 319 L 422 323 L 420 325 L 419 324 L 420 325 L 420 326 L 420 325 L 422 323 L 423 323 L 424 324 L 426 324 L 426 323 L 427 322 L 428 323 L 427 322 L 427 320 L 428 319 L 428 316 L 429 315 L 429 312 L 430 311 L 430 307 L 431 306 L 431 288 L 430 287 L 430 283 L 429 282 L 429 280 L 428 279 L 428 277 L 427 276 L 427 274 L 428 273 L 427 274 L 426 273 L 426 272 L 428 270 L 429 271 L 430 271 L 429 271 L 428 270 L 426 272 L 425 271 L 425 270 L 424 269 L 424 268 L 422 266 L 422 265 L 423 264 L 424 265 L 423 264 L 422 265 L 420 263 L 420 262 L 421 261 L 420 260 L 419 261 L 407 249 L 408 248 Z"/>
<path d="M 604 244 Z"/>
<path d="M 515 244 Z"/>
<path d="M 571 243 L 571 244 Z"/>
<path d="M 516 242 Z"/>
<path d="M 514 242 Z"/>
<path d="M 605 241 Z"/>
<path d="M 493 241 Z"/>
<path d="M 569 240 Z"/>
<path d="M 456 240 L 457 240 Z"/>
<path d="M 543 237 Z"/>
<path d="M 463 237 Z"/>
<path d="M 597 236 Z"/>
<path d="M 541 236 Z"/>
<path d="M 539 236 Z"/>
<path d="M 464 235 Z"/>
<path d="M 537 233 Z"/>
<path d="M 494 233 L 494 235 Z"/>
<path d="M 590 232 Z"/>
<path d="M 586 231 Z"/>
<path d="M 581 229 Z"/>
<path d="M 572 229 L 572 241 L 573 242 L 573 246 L 574 247 L 574 250 L 575 251 L 575 253 L 576 254 L 576 256 L 577 257 L 577 258 L 578 259 L 578 260 L 579 261 L 579 262 L 581 264 L 581 265 L 584 268 L 584 269 L 583 270 L 580 267 L 579 267 L 578 266 L 579 265 L 578 266 L 576 264 L 578 266 L 578 267 L 580 269 L 580 270 L 580 269 L 581 268 L 583 270 L 582 271 L 583 270 L 585 272 L 584 273 L 585 272 L 583 270 L 584 269 L 585 269 L 591 275 L 590 276 L 591 275 L 592 275 L 593 276 L 594 276 L 596 278 L 595 279 L 596 278 L 597 278 L 598 279 L 597 280 L 598 279 L 600 279 L 601 280 L 603 280 L 604 281 L 607 281 L 608 282 L 610 282 L 611 283 L 612 283 L 612 272 L 611 271 L 611 266 L 610 265 L 610 261 L 609 260 L 609 258 L 610 257 L 609 258 L 608 257 L 608 256 L 607 255 L 607 254 L 606 253 L 606 252 L 605 251 L 605 250 L 606 249 L 605 250 L 603 248 L 603 247 L 604 246 L 603 247 L 599 243 L 599 242 L 600 241 L 599 242 L 597 240 L 596 240 L 592 236 L 593 235 L 592 234 L 593 235 L 592 236 L 591 236 L 590 235 L 589 235 L 588 234 L 587 234 L 586 233 L 585 233 L 584 232 L 583 232 L 582 231 L 580 231 L 579 230 L 577 230 L 576 229 Z"/>
<path d="M 570 229 Z"/>
<path d="M 524 229 Z"/>
<path d="M 529 228 L 523 234 L 522 233 L 521 234 L 522 233 L 523 234 L 523 235 L 521 237 L 520 236 L 521 237 L 521 238 L 519 240 L 518 239 L 519 240 L 519 241 L 518 242 L 518 243 L 517 244 L 517 245 L 516 246 L 516 247 L 515 248 L 515 249 L 514 250 L 514 251 L 513 252 L 512 251 L 513 252 L 513 255 L 512 256 L 512 259 L 511 260 L 511 280 L 512 281 L 512 285 L 513 286 L 513 289 L 514 290 L 514 291 L 515 292 L 515 294 L 516 295 L 516 296 L 517 297 L 517 299 L 516 300 L 517 299 L 519 301 L 519 302 L 520 303 L 520 304 L 522 306 L 522 307 L 521 308 L 520 307 L 521 308 L 522 307 L 524 309 L 524 310 L 523 311 L 522 310 L 525 313 L 524 314 L 528 310 L 525 313 L 523 311 L 524 310 L 525 310 L 533 302 L 534 303 L 533 302 L 533 301 L 536 298 L 537 299 L 536 298 L 536 297 L 537 296 L 537 295 L 539 293 L 540 294 L 539 293 L 539 292 L 540 291 L 541 292 L 540 291 L 540 290 L 541 289 L 541 287 L 542 286 L 542 285 L 543 284 L 543 281 L 544 280 L 544 277 L 545 276 L 545 272 L 546 271 L 546 260 L 545 259 L 545 254 L 544 253 L 544 251 L 543 250 L 543 248 L 542 247 L 542 245 L 541 244 L 541 243 L 540 242 L 540 241 L 539 240 L 539 239 L 537 237 L 537 236 L 535 234 L 535 233 L 530 228 Z"/>
<path d="M 574 227 L 575 227 Z"/>
<path d="M 571 227 Z"/>
<path d="M 577 226 L 578 226 Z"/>
<path d="M 528 226 Z"/>
<path d="M 573 225 Z"/>
<path d="M 530 225 L 534 229 L 532 227 L 533 226 L 532 227 Z"/>
<path d="M 481 224 L 482 225 Z"/>
<path d="M 488 223 Z"/>
<path d="M 488 221 L 489 221 Z"/>
<path d="M 492 220 L 492 222 L 493 222 L 494 223 L 493 224 L 492 224 L 491 225 L 487 225 L 486 226 L 484 226 L 483 227 L 481 227 L 480 228 L 479 228 L 478 229 L 477 229 L 476 230 L 475 230 L 474 229 L 475 230 L 473 232 L 472 232 L 470 234 L 469 234 L 468 233 L 469 234 L 459 244 L 458 243 L 457 244 L 456 243 L 457 244 L 458 243 L 459 244 L 459 245 L 457 247 L 457 248 L 456 249 L 456 250 L 454 252 L 453 251 L 454 252 L 454 253 L 453 254 L 452 253 L 453 254 L 453 255 L 452 256 L 451 255 L 452 256 L 452 258 L 451 259 L 451 262 L 450 263 L 450 267 L 449 268 L 449 280 L 450 280 L 451 279 L 453 279 L 454 278 L 455 278 L 456 277 L 458 277 L 459 276 L 460 276 L 461 275 L 463 275 L 464 274 L 465 274 L 466 273 L 467 273 L 468 272 L 469 272 L 470 273 L 469 272 L 471 270 L 472 270 L 474 268 L 475 268 L 476 269 L 476 270 L 477 270 L 476 269 L 479 266 L 478 265 L 480 263 L 481 264 L 482 263 L 481 262 L 481 261 L 484 258 L 485 259 L 486 258 L 485 259 L 484 258 L 484 257 L 485 256 L 485 255 L 487 253 L 487 252 L 488 251 L 488 250 L 489 249 L 490 250 L 489 249 L 489 247 L 490 246 L 490 244 L 491 243 L 491 239 L 492 238 L 492 229 L 493 228 L 493 224 L 494 223 L 494 222 L 493 222 L 492 221 Z"/>
<path d="M 260 142 Z"/>
<path d="M 652 62 Z"/>
<path d="M 612 62 Z"/>
</svg>